<?xml version="1.0" encoding="UTF-8" standalone="no"?>
<svg
   inkscape:export-ydpi="300.03751"
   inkscape:export-xdpi="300.03751"
   inkscape:export-filename="/Users/chainz/Documents/Projects/mystack/tech/assets/2020-09-04-diagrams.png"
   sodipodi:docname="cpu-memory-database-stats.svg"
   inkscape:version="1.2.1 (9c6d41e, 2022-07-14)"
   id="svg8"
   version="1.1"
   viewBox="0 0 100 23.690001"
   height="23.690001mm"
   width="100mm"
   xml:space="preserve"
   xmlns:inkscape="http://www.inkscape.org/namespaces/inkscape"
   xmlns:sodipodi="http://sodipodi.sourceforge.net/DTD/sodipodi-0.dtd"
   xmlns="http://www.w3.org/2000/svg"
   xmlns:svg="http://www.w3.org/2000/svg"
   xmlns:rdf="http://www.w3.org/1999/02/22-rdf-syntax-ns#"
   xmlns:cc="http://creativecommons.org/ns#"
   xmlns:dc="http://purl.org/dc/elements/1.1/"><defs
     id="defs2"><marker
       inkscape:isstock="true"
       style="overflow:visible"
       id="marker2994"
       refX="0"
       refY="0"
       orient="auto"
       inkscape:stockid="Arrow1Lend"
       viewBox="0 0 17.773854 10.156488"
       markerWidth="7.9999995"
       markerHeight="4.5714283"
       preserveAspectRatio="xMidYMid"><path
         transform="matrix(-0.8,0,0,-0.8,-10,0)"
         style="fill:#71589b;fill-opacity:1;fill-rule:evenodd;stroke:#71589b;stroke-width:1pt;stroke-opacity:1"
         d="M 0,0 5,-5 -12.5,0 5,5 Z"
         id="path2992" /></marker><marker
       inkscape:stockid="Arrow1Lend"
       orient="auto"
       refY="0"
       refX="0"
       id="marker1881"
       style="overflow:visible"
       inkscape:isstock="true"
       viewBox="0 0 17.773854 10.156488"
       markerWidth="17.773853"
       markerHeight="10.156488"
       preserveAspectRatio="xMidYMid"><path
         id="path1879"
         d="M 0,0 5,-5 -12.5,0 5,5 Z"
         style="fill:#71589b;fill-opacity:1;fill-rule:evenodd;stroke:#71589b;stroke-width:1pt;stroke-opacity:1"
         transform="matrix(-0.8,0,0,-0.8,-10,0)" /></marker><marker
       inkscape:stockid="Arrow1Lend"
       orient="auto"
       refY="0"
       refX="0"
       id="marker1528"
       style="overflow:visible"
       inkscape:isstock="true"><path
         id="path1526"
         d="M 0,0 5,-5 -12.5,0 5,5 Z"
         style="fill:#71589b;fill-opacity:1;fill-rule:evenodd;stroke:#71589b;stroke-width:1pt;stroke-opacity:1"
         transform="matrix(-0.8,0,0,-0.8,-10,0)" /></marker><marker
       inkscape:stockid="Arrow1Lend"
       orient="auto"
       refY="0"
       refX="0"
       id="marker1436"
       style="overflow:visible"
       inkscape:isstock="true"><path
         id="path1434"
         d="M 0,0 5,-5 -12.5,0 5,5 Z"
         style="fill:#71589b;fill-opacity:1;fill-rule:evenodd;stroke:#71589b;stroke-width:1pt;stroke-opacity:1"
         transform="matrix(-0.8,0,0,-0.8,-10,0)" /></marker><marker
       inkscape:isstock="true"
       style="overflow:visible"
       id="marker937"
       refX="0"
       refY="0"
       orient="auto"
       inkscape:stockid="Arrow1Lend"><path
         transform="matrix(-0.8,0,0,-0.8,-10,0)"
         style="fill:#71589b;fill-opacity:1;fill-rule:evenodd;stroke:#71589b;stroke-width:1pt;stroke-opacity:1"
         d="M 0,0 5,-5 -12.5,0 5,5 Z"
         id="path935" /></marker><marker
       inkscape:isstock="true"
       style="overflow:visible"
       id="marker1923"
       refX="0"
       refY="0"
       orient="auto"
       inkscape:stockid="Arrow1Lend"><path
         transform="matrix(-0.8,0,0,-0.8,-10,0)"
         style="fill:#71589b;fill-opacity:1;fill-rule:evenodd;stroke:#71589b;stroke-width:1pt;stroke-opacity:1"
         d="M 0,0 5,-5 -12.5,0 5,5 Z"
         id="path1921" /></marker><marker
       inkscape:isstock="true"
       style="overflow:visible"
       id="marker1871"
       refX="0"
       refY="0"
       orient="auto"
       inkscape:stockid="Arrow1Lend"><path
         transform="matrix(-0.8,0,0,-0.8,-10,0)"
         style="fill:#71589b;fill-opacity:1;fill-rule:evenodd;stroke:#71589b;stroke-width:1pt;stroke-opacity:1"
         d="M 0,0 5,-5 -12.5,0 5,5 Z"
         id="path1869" /></marker><marker
       inkscape:stockid="Arrow1Lend"
       orient="auto"
       refY="0"
       refX="0"
       id="marker1762"
       style="overflow:visible"
       inkscape:isstock="true"><path
         id="path1760"
         d="M 0,0 5,-5 -12.5,0 5,5 Z"
         style="fill:#71589b;fill-opacity:1;fill-rule:evenodd;stroke:#71589b;stroke-width:1pt;stroke-opacity:1"
         transform="matrix(-0.8,0,0,-0.8,-10,0)" /></marker><marker
       inkscape:stockid="Arrow1Lend"
       orient="auto"
       refY="0"
       refX="0"
       id="marker1752"
       style="overflow:visible"
       inkscape:isstock="true"
       viewBox="0 0 17.773854 10.156488"
       markerWidth="17.773853"
       markerHeight="10.156488"
       preserveAspectRatio="xMidYMid"><path
         id="path1750"
         d="M 0,0 5,-5 -12.5,0 5,5 Z"
         style="fill:#71589b;fill-opacity:1;fill-rule:evenodd;stroke:#71589b;stroke-width:1pt;stroke-opacity:1"
         transform="matrix(-0.8,0,0,-0.8,-10,0)" /></marker><marker
       inkscape:isstock="true"
       style="overflow:visible"
       id="marker1542"
       refX="0"
       refY="0"
       orient="auto"
       inkscape:stockid="Arrow1Lend"><path
         transform="matrix(-0.8,0,0,-0.8,-10,0)"
         style="fill:#71589b;fill-opacity:1;fill-rule:evenodd;stroke:#71589b;stroke-width:1pt;stroke-opacity:1"
         d="M 0,0 5,-5 -12.5,0 5,5 Z"
         id="path1540" /></marker><marker
       inkscape:isstock="true"
       style="overflow:visible"
       id="Arrow1Lstart"
       refX="0"
       refY="0"
       orient="auto"
       inkscape:stockid="Arrow1Lstart"><path
         transform="matrix(0.8,0,0,0.8,10,0)"
         style="fill:#000000;fill-opacity:1;fill-rule:evenodd;stroke:#000000;stroke-width:1pt;stroke-opacity:1"
         d="M 0,0 5,-5 -12.5,0 5,5 Z"
         id="path1205" /></marker><marker
       inkscape:isstock="true"
       style="overflow:visible"
       id="marker1528-6"
       refX="0"
       refY="0"
       orient="auto"
       inkscape:stockid="Arrow1Lend"><path
         transform="matrix(-0.8,0,0,-0.8,-10,0)"
         style="fill:#71589b;fill-opacity:1;fill-rule:evenodd;stroke:#71589b;stroke-width:1pt;stroke-opacity:1"
         d="M 0,0 5,-5 -12.5,0 5,5 Z"
         id="path1526-5" /></marker></defs><sodipodi:namedview
     inkscape:snap-global="true"
     height="250mm"
     inkscape:document-rotation="0"
     inkscape:guide-bbox="true"
     inkscape:window-maximized="0"
     inkscape:window-y="38"
     inkscape:window-x="0"
     inkscape:window-height="1005"
     inkscape:window-width="1680"
     showguides="true"
     width="144mm"
     showgrid="false"
     inkscape:current-layer="g24320"
     inkscape:document-units="mm"
     inkscape:cy="66.159005"
     inkscape:cx="184.48516"
     inkscape:zoom="2.8945417"
     inkscape:pageshadow="2"
     inkscape:pageopacity="0"
     borderopacity="1.0"
     bordercolor="#666666"
     pagecolor="#0b2318"
     id="base"
     inkscape:showpageshadow="2"
     inkscape:pagecheckerboard="0"
     inkscape:deskcolor="#d1d1d1" /><metadata
     id="metadata5"><rdf:RDF><cc:Work
         rdf:about=""><dc:format>image/svg+xml</dc:format><dc:type
           rdf:resource="http://purl.org/dc/dcmitype/StillImage" /></cc:Work></rdf:RDF></metadata><g
     transform="translate(0,703)"
     id="layer1"
     inkscape:groupmode="layer"
     inkscape:label="Layer 1"><g
       transform="translate(-1.0992445,-0.53617761)"
       id="g24320"><g
         id="g13309"
         transform="translate(0.25494363,-2.3979424)"><text
           xml:space="preserve"
           style="font-style:normal;font-variant:normal;font-weight:normal;font-stretch:normal;font-size:6.35px;line-height:1.25;font-family:'PT Sans';-inkscape-font-specification:'PT Sans';text-align:center;letter-spacing:0px;word-spacing:0px;text-anchor:middle;fill:#ffffff;fill-opacity:1;stroke:none;stroke-width:0.264583"
           x="11.687333"
           y="-691.11334"
           id="text28610"><tspan
             sodipodi:role="line"
             id="tspan28608"
             x="11.687333"
             y="-691.11334"
             style="font-size:3.88056px;text-align:center;text-anchor:middle;fill:#ffffff;stroke-width:0.264583">CPU</tspan></text><rect
           style="font-variation-settings:normal;fill:none;fill-opacity:1;stroke:#ffffff;stroke-width:0.264583px;stroke-linecap:butt;stroke-linejoin:miter;stroke-miterlimit:4;stroke-dasharray:none;stroke-dashoffset:0;stroke-opacity:1;stop-color:#000000"
           id="rect28612"
           width="11.53"
           height="11.529782"
           x="5.8660679"
           y="-698.2287"
           ry="0" /><path
           id="path28614"
           style="font-variation-settings:normal;fill:none;fill-opacity:1;stroke:#ffffff;stroke-width:0.264584px;stroke-linecap:butt;stroke-linejoin:miter;stroke-miterlimit:4;stroke-dasharray:none;stroke-dashoffset:0;stroke-opacity:1;stop-color:#000000"
           d="m 17.528253,-696.16799 h 1.70487 z m -13.4992402,0 h 1.70487 z m 13.4992402,2.46944 h 1.70487 z m -13.4992402,0 h 1.70487 z m 13.4992402,2.46945 h 1.70487 z m -13.4992402,0 h 1.70487 z m 13.4992402,2.46944 h 1.70487 z m -13.4992402,0 h 1.70487 z m 11.3062242,2.19302 v 1.70487 z m 0,-13.49924 v 1.70487 z m -2.469446,13.49924 v 1.70487 z m 0,-13.49924 v 1.70487 z m -2.469446,13.49924 v 1.70487 z m 0,-13.49924 v 1.70487 z m -2.4694462,13.49924 v 1.70487 z m 0,-13.49924 v 1.70487 z" /></g><path
         id="path17012"
         style="color:#000000;fill:#ffffff;fill-rule:evenodd"
         d="m 20.208156,-696.39975 -2.411739,1.39423 -0.250114,0.1447 2.661853,1.53685 v -1.28674 h 19.599778 v 1.28674 l 2.66237,-1.53685 -0.250114,-0.1447 -2.412256,-1.39423 v 1.28881 H 20.208156 Z"
         sodipodi:nodetypes="ccccccccccccc" /><g
         id="g13096"
         transform="translate(-39.281374,-2.3979424)"><text
           xml:space="preserve"
           style="font-style:normal;font-variant:normal;font-weight:normal;font-stretch:normal;font-size:6.35px;line-height:1.25;font-family:'PT Sans';-inkscape-font-specification:'PT Sans';text-align:center;letter-spacing:0px;word-spacing:0px;text-anchor:middle;fill:#ffffff;fill-opacity:1;stroke:none;stroke-width:0.264583"
           x="89.93737"
           y="-691.11334"
           id="text28624"><tspan
             sodipodi:role="line"
             id="tspan28622"
             x="89.93737"
             y="-691.11334"
             style="font-size:3.88056px;text-align:center;text-anchor:middle;fill:#ffffff;stroke-width:0.264583">Memory</tspan></text><rect
           style="font-variation-settings:normal;fill:none;fill-opacity:1;stroke:#ffffff;stroke-width:0.264583px;stroke-linecap:butt;stroke-linejoin:miter;stroke-miterlimit:4;stroke-dasharray:none;stroke-dashoffset:0;stroke-opacity:1;stop-color:#000000"
           id="rect28626"
           width="15.904707"
           height="11.529785"
           x="82.132477"
           y="-698.2287"
           ry="0" /></g><g
         id="g13315"
         transform="translate(0.1329265,-2.3979424)"><text
           xml:space="preserve"
           style="font-style:normal;font-variant:normal;font-weight:normal;font-stretch:normal;font-size:6.35px;line-height:1.25;font-family:'PT Sans';-inkscape-font-specification:'PT Sans';text-align:center;letter-spacing:0px;word-spacing:0px;text-anchor:middle;fill:#ffffff;fill-opacity:1;stroke:none;stroke-width:0.264583"
           x="30.827999"
           y="-681.93402"
           id="text21039"><tspan
             sodipodi:role="line"
             id="tspan21037"
             x="30.827999"
             y="-681.93402"
             style="font-size:3.88056px;text-align:center;text-anchor:middle;fill:#ffffff;stroke-width:0.264583">100 cycles</tspan></text><path
           id="path21041"
           style="color:#000000;fill:#ffffff;stroke-width:0.264999;-inkscape-stroke:none"
           d="m 49.374853,-683.943 v 0.9276 h -9.508465 v 0.26355 h 9.508465 v 0.9281 h 0.265617 v -2.11925 z"
           sodipodi:nodetypes="ccccccccc" /><path
           id="path21043"
           style="color:#000000;fill:#ffffff;stroke-width:0.264999;-inkscape-stroke:none"
           d="m 11.994761,-683.943 v 0.9276 h 10.037631 v 0.26355 H 11.994761 v 0.9281 h -0.265617 v -2.11925 z"
           sodipodi:nodetypes="ccccccccc" /></g><g
         id="g13218"
         transform="translate(0.1329265,-11.393776)"><text
           xml:space="preserve"
           style="font-style:normal;font-variant:normal;font-weight:normal;font-stretch:normal;font-size:6.35px;line-height:1.25;font-family:'PT Sans';-inkscape-font-specification:'PT Sans';text-align:center;letter-spacing:0px;word-spacing:0px;text-anchor:middle;fill:#ffffff;fill-opacity:1;stroke:none;stroke-width:0.264583"
           x="49.679855"
           y="-668.17548"
           id="text21305"><tspan
             sodipodi:role="line"
             id="tspan21303"
             x="49.679855"
             y="-668.17548"
             style="font-size:3.88056px;text-align:center;text-anchor:middle;fill:#ffffff;stroke-width:0.264583">1,600,000 cycles</tspan></text><path
           id="path21307"
           style="color:#000000;fill:#ffffff;stroke-width:0.264999;-inkscape-stroke:none"
           d="m 89.937875,-670.18458 v 0.9276 H 63.933836 v 0.26355 h 26.004039 v 0.9281 h 0.265617 v -2.11925 z"
           sodipodi:nodetypes="ccccccccc" /><path
           id="path21309"
           style="color:#000000;fill:#ffffff;stroke-width:0.264999;-inkscape-stroke:none"
           d="m 11.994761,-670.18458 v 0.9276 h 23.795964 v 0.26355 H 11.994761 v 0.9281 h -0.265617 v -2.11925 z"
           sodipodi:nodetypes="ccccccccc" /></g><g
         id="g9558"
         transform="translate(0.002383,-2.9196885)"><text
           xml:space="preserve"
           style="font-style:normal;font-variant:normal;font-weight:normal;font-stretch:normal;font-size:6.35px;line-height:1.25;font-family:'PT Sans';-inkscape-font-specification:'PT Sans';text-align:center;letter-spacing:0px;word-spacing:0px;text-anchor:middle;fill:#ffffff;fill-opacity:1;stroke:none;stroke-width:0.264583"
           x="90.05365"
           y="-690.65753"
           id="text922"><tspan
             sodipodi:role="line"
             id="tspan920"
             x="90.05365"
             y="-690.65753"
             style="font-size:3.88056px;text-align:center;text-anchor:middle;fill:#ffffff;stroke-width:0.264583">Postgres</tspan></text><path
           id="ellipse1104"
           style="opacity:1;vector-effect:none;fill:none;stroke:#ffffff;stroke-width:0.264583px;stop-color:#000000;stop-opacity:1"
           d="m 98.153461,-697.77287 v 11.52978 c -1.2e-5,0.88345 -3.560396,1.7319 -7.952352,1.7319 -4.391956,0 -7.952343,-0.84845 -7.952355,-1.7319 v -11.52978 m 15.90471,-4.3e-4 a 7.9523549,1.5996342 0 0 1 -7.952355,1.59964 7.9523549,1.5996342 0 0 1 -7.952355,-1.59964 7.9523549,1.5996342 0 0 1 7.952355,-1.59963 7.9523549,1.5996342 0 0 1 7.952355,1.59963 z" /></g><path
         id="path13317"
         style="color:#000000;fill:#ffffff;fill-rule:evenodd"
         d="m 61.445231,-696.39975 -2.411739,1.39423 -0.250114,0.1447 2.661853,1.53685 v -1.28674 h 18.012278 v 1.28674 l 2.66237,-1.53685 -0.250114,-0.1447 -2.412256,-1.39423 v 1.28881 H 61.445231 Z"
         sodipodi:nodetypes="ccccccccccccc" /></g></g></svg>
