<?xml version="1.0" encoding="UTF-8" standalone="no"?>
<svg
   inkscape:export-ydpi="300.03751"
   inkscape:export-xdpi="300.03751"
   inkscape:export-filename="/Users/chainz/Documents/Projects/mystack/tech/assets/2020-09-04-diagrams.png"
   sodipodi:docname="data-oriented-frontend-microservices.svg"
   inkscape:version="1.2.1 (9c6d41e, 2022-07-14)"
   id="svg8"
   version="1.1"
   viewBox="0 0 100 43.369999"
   height="43.369999mm"
   width="100mm"
   xml:space="preserve"
   xmlns:inkscape="http://www.inkscape.org/namespaces/inkscape"
   xmlns:sodipodi="http://sodipodi.sourceforge.net/DTD/sodipodi-0.dtd"
   xmlns="http://www.w3.org/2000/svg"
   xmlns:svg="http://www.w3.org/2000/svg"
   xmlns:rdf="http://www.w3.org/1999/02/22-rdf-syntax-ns#"
   xmlns:cc="http://creativecommons.org/ns#"
   xmlns:dc="http://purl.org/dc/elements/1.1/"><defs
     id="defs2"><marker
       inkscape:isstock="true"
       style="overflow:visible"
       id="marker2994"
       refX="0"
       refY="0"
       orient="auto"
       inkscape:stockid="Arrow1Lend"
       viewBox="0 0 17.773854 10.156488"
       markerWidth="7.9999995"
       markerHeight="4.5714283"
       preserveAspectRatio="xMidYMid"><path
         transform="matrix(-0.8,0,0,-0.8,-10,0)"
         style="fill:#71589b;fill-opacity:1;fill-rule:evenodd;stroke:#71589b;stroke-width:1pt;stroke-opacity:1"
         d="M 0,0 5,-5 -12.5,0 5,5 Z"
         id="path2992" /></marker><marker
       inkscape:stockid="Arrow1Lend"
       orient="auto"
       refY="0"
       refX="0"
       id="marker1881"
       style="overflow:visible"
       inkscape:isstock="true"
       viewBox="0 0 17.773854 10.156488"
       markerWidth="17.773853"
       markerHeight="10.156488"
       preserveAspectRatio="xMidYMid"><path
         id="path1879"
         d="M 0,0 5,-5 -12.5,0 5,5 Z"
         style="fill:#71589b;fill-opacity:1;fill-rule:evenodd;stroke:#71589b;stroke-width:1pt;stroke-opacity:1"
         transform="matrix(-0.8,0,0,-0.8,-10,0)" /></marker><marker
       inkscape:stockid="Arrow1Lend"
       orient="auto"
       refY="0"
       refX="0"
       id="marker1528"
       style="overflow:visible"
       inkscape:isstock="true"><path
         id="path1526"
         d="M 0,0 5,-5 -12.5,0 5,5 Z"
         style="fill:#71589b;fill-opacity:1;fill-rule:evenodd;stroke:#71589b;stroke-width:1pt;stroke-opacity:1"
         transform="matrix(-0.8,0,0,-0.8,-10,0)" /></marker><marker
       inkscape:stockid="Arrow1Lend"
       orient="auto"
       refY="0"
       refX="0"
       id="marker1436"
       style="overflow:visible"
       inkscape:isstock="true"><path
         id="path1434"
         d="M 0,0 5,-5 -12.5,0 5,5 Z"
         style="fill:#71589b;fill-opacity:1;fill-rule:evenodd;stroke:#71589b;stroke-width:1pt;stroke-opacity:1"
         transform="matrix(-0.8,0,0,-0.8,-10,0)" /></marker><marker
       inkscape:isstock="true"
       style="overflow:visible"
       id="marker937"
       refX="0"
       refY="0"
       orient="auto"
       inkscape:stockid="Arrow1Lend"><path
         transform="matrix(-0.8,0,0,-0.8,-10,0)"
         style="fill:#71589b;fill-opacity:1;fill-rule:evenodd;stroke:#71589b;stroke-width:1pt;stroke-opacity:1"
         d="M 0,0 5,-5 -12.5,0 5,5 Z"
         id="path935" /></marker><marker
       inkscape:isstock="true"
       style="overflow:visible"
       id="marker1923"
       refX="0"
       refY="0"
       orient="auto"
       inkscape:stockid="Arrow1Lend"><path
         transform="matrix(-0.8,0,0,-0.8,-10,0)"
         style="fill:#71589b;fill-opacity:1;fill-rule:evenodd;stroke:#71589b;stroke-width:1pt;stroke-opacity:1"
         d="M 0,0 5,-5 -12.5,0 5,5 Z"
         id="path1921" /></marker><marker
       inkscape:isstock="true"
       style="overflow:visible"
       id="marker1871"
       refX="0"
       refY="0"
       orient="auto"
       inkscape:stockid="Arrow1Lend"><path
         transform="matrix(-0.8,0,0,-0.8,-10,0)"
         style="fill:#71589b;fill-opacity:1;fill-rule:evenodd;stroke:#71589b;stroke-width:1pt;stroke-opacity:1"
         d="M 0,0 5,-5 -12.5,0 5,5 Z"
         id="path1869" /></marker><marker
       inkscape:stockid="Arrow1Lend"
       orient="auto"
       refY="0"
       refX="0"
       id="marker1762"
       style="overflow:visible"
       inkscape:isstock="true"><path
         id="path1760"
         d="M 0,0 5,-5 -12.5,0 5,5 Z"
         style="fill:#71589b;fill-opacity:1;fill-rule:evenodd;stroke:#71589b;stroke-width:1pt;stroke-opacity:1"
         transform="matrix(-0.8,0,0,-0.8,-10,0)" /></marker><marker
       inkscape:stockid="Arrow1Lend"
       orient="auto"
       refY="0"
       refX="0"
       id="marker1752"
       style="overflow:visible"
       inkscape:isstock="true"
       viewBox="0 0 17.773854 10.156488"
       markerWidth="17.773853"
       markerHeight="10.156488"
       preserveAspectRatio="xMidYMid"><path
         id="path1750"
         d="M 0,0 5,-5 -12.5,0 5,5 Z"
         style="fill:#71589b;fill-opacity:1;fill-rule:evenodd;stroke:#71589b;stroke-width:1pt;stroke-opacity:1"
         transform="matrix(-0.8,0,0,-0.8,-10,0)" /></marker><marker
       inkscape:isstock="true"
       style="overflow:visible"
       id="marker1542"
       refX="0"
       refY="0"
       orient="auto"
       inkscape:stockid="Arrow1Lend"><path
         transform="matrix(-0.8,0,0,-0.8,-10,0)"
         style="fill:#71589b;fill-opacity:1;fill-rule:evenodd;stroke:#71589b;stroke-width:1pt;stroke-opacity:1"
         d="M 0,0 5,-5 -12.5,0 5,5 Z"
         id="path1540" /></marker><marker
       inkscape:isstock="true"
       style="overflow:visible"
       id="Arrow1Lstart"
       refX="0"
       refY="0"
       orient="auto"
       inkscape:stockid="Arrow1Lstart"><path
         transform="matrix(0.8,0,0,0.8,10,0)"
         style="fill:#000000;fill-opacity:1;fill-rule:evenodd;stroke:#000000;stroke-width:1pt;stroke-opacity:1"
         d="M 0,0 5,-5 -12.5,0 5,5 Z"
         id="path1205" /></marker><marker
       inkscape:isstock="true"
       style="overflow:visible"
       id="marker1528-6"
       refX="0"
       refY="0"
       orient="auto"
       inkscape:stockid="Arrow1Lend"><path
         transform="matrix(-0.8,0,0,-0.8,-10,0)"
         style="fill:#71589b;fill-opacity:1;fill-rule:evenodd;stroke:#71589b;stroke-width:1pt;stroke-opacity:1"
         d="M 0,0 5,-5 -12.5,0 5,5 Z"
         id="path1526-5" /></marker></defs><sodipodi:namedview
     inkscape:snap-global="true"
     height="250mm"
     inkscape:document-rotation="0"
     inkscape:guide-bbox="true"
     inkscape:window-maximized="0"
     inkscape:window-y="38"
     inkscape:window-x="0"
     inkscape:window-height="1005"
     inkscape:window-width="1680"
     showguides="false"
     width="144mm"
     showgrid="false"
     inkscape:current-layer="g24320"
     inkscape:document-units="mm"
     inkscape:cy="100.03672"
     inkscape:cx="191.58745"
     inkscape:zoom="3.063875"
     inkscape:pageshadow="2"
     inkscape:pageopacity="0"
     borderopacity="1.0"
     bordercolor="#666666"
     pagecolor="#0b2318"
     id="base"
     inkscape:showpageshadow="2"
     inkscape:pagecheckerboard="0"
     inkscape:deskcolor="#d1d1d1" /><metadata
     id="metadata5"><rdf:RDF><cc:Work
         rdf:about=""><dc:format>image/svg+xml</dc:format><dc:type
           rdf:resource="http://purl.org/dc/dcmitype/StillImage" /></cc:Work></rdf:RDF></metadata><g
     transform="translate(0,703)"
     id="layer1"
     inkscape:groupmode="layer"
     inkscape:label="Layer 1"><g
       transform="translate(-1.0992445,-0.53617761)"
       id="g24320"><g
         id="g918"
         transform="matrix(0.88543584,0,0,0.8850531,-71.491503,-73.218678)"
         style="stroke-width:1.12963"><text
           xml:space="preserve"
           style="font-style:normal;font-variant:normal;font-weight:normal;font-stretch:normal;font-size:6.35px;line-height:1.25;font-family:'PT Sans';-inkscape-font-specification:'PT Sans';text-align:center;letter-spacing:0px;word-spacing:0px;text-anchor:middle;fill:#ffffff;fill-opacity:1;stroke:none;stroke-width:0.298881"
           x="89.93737"
           y="-685.117"
           id="text28624"><tspan
             sodipodi:role="line"
             id="tspan28622"
             x="89.93737"
             y="-685.117"
             style="font-size:3.88056px;text-align:center;text-anchor:middle;fill:#ffffff;stroke-width:0.298881">Browser</tspan></text><rect
           style="font-variation-settings:normal;fill:none;fill-opacity:1;stroke:#ffffff;stroke-width:0.298881px;stroke-linecap:butt;stroke-linejoin:miter;stroke-miterlimit:4;stroke-dasharray:none;stroke-dashoffset:0;stroke-opacity:1;stop-color:#000000"
           id="rect28626"
           width="15.904707"
           height="11.529785"
           x="82.132477"
           y="-692.23236"
           ry="0" /></g><path
         id="path1195"
         style="color:#000000;fill:#ffffff;fill-rule:evenodd;stroke-width:0.999999"
         d="m 17.788624,-682.13996 -1.974379,1.14066 h -0.06314 v 0.0366 l -0.09838,0.0567 -0.22146,0.12851 0.319836,0.18433 v 0.0371 h 0.06406 l 1.973463,1.13837 v -1.13837 h 2.037523 v 1.13837 l 1.973463,-1.13837 h 0.06406 v -0.0371 l 0.319836,-0.18433 -0.22146,-0.12851 -0.09838,-0.0567 v -0.0366 h -0.06314 l -1.974378,-1.14066 v 1.14066 h -2.037522 z" /><g
         id="g10103"
         transform="matrix(0.88543584,0,0,0.8850531,-14.526831,-68.816747)"
         style="stroke-width:1.12963"><text
           xml:space="preserve"
           style="font-style:normal;font-variant:normal;font-weight:normal;font-stretch:normal;font-size:6.35px;line-height:1.25;font-family:'PT Sans';-inkscape-font-specification:'PT Sans';text-align:center;letter-spacing:0px;word-spacing:0px;text-anchor:middle;fill:#ffffff;fill-opacity:1;stroke:none;stroke-width:0.298881"
           x="50.409355"
           y="-690.44769"
           id="text9706"><tspan
             sodipodi:role="line"
             id="tspan9704"
             x="50.409355"
             y="-690.44769"
             style="font-size:3.88056px;text-align:center;text-anchor:middle;fill:#ffffff;stroke-width:0.298881">JavaScript</tspan></text><rect
           style="font-variation-settings:normal;fill:none;fill-opacity:1;stroke:#ffffff;stroke-width:0.298881px;stroke-linecap:butt;stroke-linejoin:miter;stroke-miterlimit:4;stroke-dasharray:none;stroke-dashoffset:0;stroke-opacity:1;stop-color:#000000"
           id="rect9708"
           width="17.459112"
           height="11.529785"
           x="41.592487"
           y="-697.20599"
           ry="2.7959299"
           rx="2.7959299" /></g><g
         id="g10235"
         transform="matrix(0.88543584,0,0,0.8850531,-27.976952,-73.218678)"
         style="stroke-width:1.12963"><text
           xml:space="preserve"
           style="font-style:normal;font-variant:normal;font-weight:normal;font-stretch:normal;font-size:6.35px;line-height:1.25;font-family:'PT Sans';-inkscape-font-specification:'PT Sans';text-align:center;letter-spacing:0px;word-spacing:0px;text-anchor:middle;fill:#ffffff;fill-opacity:1;stroke:none;stroke-width:0.298881"
           x="89.93737"
           y="-685.117"
           id="text10231"><tspan
             sodipodi:role="line"
             id="tspan10229"
             x="89.93737"
             y="-685.117"
             style="font-size:3.88056px;text-align:center;text-anchor:middle;fill:#ffffff;stroke-width:0.298881">Gateway</tspan></text><rect
           style="font-variation-settings:normal;fill:none;fill-opacity:1;stroke:#ffffff;stroke-width:0.298881px;stroke-linecap:butt;stroke-linejoin:miter;stroke-miterlimit:4;stroke-dasharray:none;stroke-dashoffset:0;stroke-opacity:1;stop-color:#000000"
           id="rect10233"
           width="15.904707"
           height="11.529785"
           x="82.132477"
           y="-692.23236"
           ry="0" /></g><g
         id="g10279"
         transform="matrix(0.88543584,0,0,0.8850531,1.317684,-85.632765)"
         style="stroke-width:1.12963"><text
           xml:space="preserve"
           style="font-style:normal;font-variant:normal;font-weight:normal;font-stretch:normal;font-size:6.35px;line-height:0.5;font-family:'PT Sans';-inkscape-font-specification:'PT Sans';text-align:center;letter-spacing:0px;word-spacing:0px;text-anchor:middle;fill:#ffffff;fill-opacity:1;stroke:none;stroke-width:0.298881"
           x="80.647568"
           y="-672.64709"
           id="text10245"><tspan
             sodipodi:role="line"
             id="tspan10243"
             x="80.647568"
             y="-672.64709"
             style="font-size:3.88056px;text-align:center;text-anchor:middle;fill:#ffffff;stroke-width:0.298881">Service</tspan><tspan
             sodipodi:role="line"
             x="80.647568"
             y="-669.47211"
             style="font-size:3.88056px;text-align:center;text-anchor:middle;fill:#ffffff;stroke-width:0.298881"
             id="tspan10255">2</tspan></text><rect
           style="font-variation-settings:normal;fill:none;fill-opacity:1;stroke:#ffffff;stroke-width:0.298881px;stroke-linecap:butt;stroke-linejoin:miter;stroke-miterlimit:4;stroke-dasharray:none;stroke-dashoffset:0;stroke-opacity:1;stop-color:#000000"
           id="rect10247"
           width="15.904707"
           height="11.529785"
           x="72.842674"
           y="-678.20599"
           ry="0" /></g><g
         id="g10285"
         transform="matrix(0.88543584,0,0,0.8850531,1.317684,-85.632765)"
         style="stroke-width:1.12963"><text
           xml:space="preserve"
           style="font-style:normal;font-variant:normal;font-weight:normal;font-stretch:normal;font-size:6.35px;line-height:0.5;font-family:'PT Sans';-inkscape-font-specification:'PT Sans';text-align:center;letter-spacing:0px;word-spacing:0px;text-anchor:middle;fill:#ffffff;fill-opacity:1;stroke:none;stroke-width:0.298881"
           x="80.647568"
           y="-688.43494"
           id="text10265"><tspan
             sodipodi:role="line"
             id="tspan10261"
             x="80.647568"
             y="-688.43494"
             style="font-size:3.88056px;text-align:center;text-anchor:middle;fill:#ffffff;stroke-width:0.298881">Service</tspan><tspan
             sodipodi:role="line"
             x="80.647568"
             y="-685.25995"
             style="font-size:3.88056px;text-align:center;text-anchor:middle;fill:#ffffff;stroke-width:0.298881"
             id="tspan10263">1</tspan></text><rect
           style="font-variation-settings:normal;fill:none;fill-opacity:1;stroke:#ffffff;stroke-width:0.298881px;stroke-linecap:butt;stroke-linejoin:miter;stroke-miterlimit:4;stroke-dasharray:none;stroke-dashoffset:0;stroke-opacity:1;stop-color:#000000"
           id="rect10267"
           width="15.904707"
           height="11.529785"
           x="72.842674"
           y="-693.99384"
           ry="0" /></g><path
         id="path10271"
         style="color:#000000;fill:#ffffff;fill-rule:evenodd;stroke-width:0.999999"
         d="m 40.234062,-682.13996 -1.974378,1.14066 h -0.06314 v 0.0366 l -0.09838,0.0567 -0.22146,0.12851 0.319836,0.18433 v 0.0371 h 0.06406 l 1.973463,1.13837 v -1.13837 h 2.037523 v 1.13837 l 1.973463,-1.13837 h 0.06406 v -0.0371 l 0.319836,-0.18433 -0.22146,-0.12851 -0.09838,-0.0567 v -0.0366 h -0.06314 l -1.974379,-1.14066 v 1.14066 h -2.037522 z" /><path
         id="path10273"
         style="color:#000000;fill:#ffffff;fill-rule:evenodd;stroke-width:0.999999"
         d="m 61.303174,-682.13996 -1.974378,1.14066 h -0.06314 v 0.0366 l -0.09838,0.0567 -0.22146,0.12851 0.319836,0.18433 v 0.0371 h 0.06406 l 1.973463,1.13837 v -1.13837 h 2.037522 v 1.13837 l 1.973463,-1.13837 h 0.06406 v -0.0371 l 0.319837,-0.18433 -0.22146,-0.12851 -0.09838,-0.0567 v -0.0366 h -0.06314 l -1.974379,-1.14066 v 1.14066 h -2.037522 z" /><g
         id="g10295"
         transform="matrix(0.88543584,0,0,0.8850531,1.317684,-57.68656)"
         style="stroke-width:1.12963"><text
           xml:space="preserve"
           style="font-style:normal;font-variant:normal;font-weight:normal;font-stretch:normal;font-size:6.35px;line-height:0.5;font-family:'PT Sans';-inkscape-font-specification:'PT Sans';text-align:center;letter-spacing:0px;word-spacing:0px;text-anchor:middle;fill:#ffffff;fill-opacity:1;stroke:none;stroke-width:0.298881"
           x="80.647568"
           y="-688.43494"
           id="text10291"><tspan
             sodipodi:role="line"
             id="tspan10287"
             x="80.647568"
             y="-688.43494"
             style="font-size:3.88056px;text-align:center;text-anchor:middle;fill:#ffffff;stroke-width:0.298881">Service</tspan><tspan
             sodipodi:role="line"
             x="80.647568"
             y="-685.25995"
             style="font-size:3.88056px;text-align:center;text-anchor:middle;fill:#ffffff;stroke-width:0.298881"
             id="tspan10289">3</tspan></text><rect
           style="font-variation-settings:normal;fill:none;fill-opacity:1;stroke:#ffffff;stroke-width:0.298881px;stroke-linecap:butt;stroke-linejoin:miter;stroke-miterlimit:4;stroke-dasharray:none;stroke-dashoffset:0;stroke-opacity:1;stop-color:#000000"
           id="rect10293"
           width="15.904707"
           height="11.529785"
           x="72.842674"
           y="-693.99384"
           ry="0" /></g><path
         id="path10297"
         style="color:#000000;fill:#ffffff;fill-rule:evenodd;stroke-width:0.999999"
         d="m 59.66257,-687.38785 -0.589175,2.20206 -0.04464,0.0446 0.02586,0.0258 -0.02943,0.10965 -0.06568,0.24741 0.35655,-0.0957 0.02624,0.0262 0.0453,-0.0453 2.200749,-0.5899 -0.8053,-0.80496 3.352309,-3.58014 0.805299,0.80495 0.59015,-2.19979 0.0453,-0.0453 -0.02623,-0.0262 0.09577,-0.3564 -0.247512,0.0657 -0.109695,0.0294 -0.02585,-0.0258 -0.04464,0.0446 -2.203017,0.58892 0.806921,0.80657 -3.352308,3.58014 z"
         inkscape:transform-center-x="-2.5421264"
         inkscape:transform-center-y="-2.4311072"
         sodipodi:nodetypes="ccccccccccccccccccccccccc" /><path
         id="path10299"
         style="color:#000000;fill:#ffffff;fill-rule:evenodd;stroke-width:0.999999"
         d="m 59.66257,-674.16983 -0.589175,-2.20207 -0.04464,-0.0446 0.02586,-0.0258 -0.02943,-0.10965 -0.06568,-0.2474 0.35655,0.0957 0.02624,-0.0262 0.0453,0.0453 2.200749,0.5899 -0.8053,0.80495 3.352309,3.58015 0.805299,-0.80496 0.59015,2.1998 0.0453,0.0453 -0.02623,0.0262 0.09577,0.3564 -0.247512,-0.0657 -0.109695,-0.0294 -0.02585,0.0258 -0.04464,-0.0446 -2.203017,-0.58892 0.806921,-0.80657 -3.352308,-3.58015 z"
         inkscape:transform-center-x="-2.5421264"
         inkscape:transform-center-y="2.4311084"
         sodipodi:nodetypes="ccccccccccccccccccccccccc" /><g
         id="g9558"
         transform="matrix(0.88543584,0,0,0.8850531,14.058358,-82.346461)"
         style="stroke-width:1.12963"><text
           xml:space="preserve"
           style="font-style:normal;font-variant:normal;font-weight:normal;font-stretch:normal;font-size:6.35px;line-height:1.25;font-family:'PT Sans';-inkscape-font-specification:'PT Sans';text-align:center;letter-spacing:0px;word-spacing:0px;text-anchor:middle;fill:#ffffff;fill-opacity:1;stroke:none;stroke-width:0.298881"
           x="90.05365"
           y="-690.65753"
           id="text922"><tspan
             sodipodi:role="line"
             id="tspan920"
             x="90.05365"
             y="-690.65753"
             style="font-size:3.88056px;text-align:center;text-anchor:middle;fill:#ffffff;stroke-width:0.298881">DB 1</tspan></text><path
           id="ellipse1104"
           style="opacity:1;vector-effect:none;fill:none;stroke:#ffffff;stroke-width:0.298881px;stop-color:#000000;stop-opacity:1"
           d="m 98.153461,-697.77287 v 11.52978 c -1.2e-5,0.88345 -3.560396,1.7319 -7.952352,1.7319 -4.391956,0 -7.952343,-0.84845 -7.952355,-1.7319 v -11.52978 m 15.90471,-4.3e-4 a 7.9523549,1.5996342 0 0 1 -7.952355,1.59964 7.9523549,1.5996342 0 0 1 -7.952355,-1.59964 7.9523549,1.5996342 0 0 1 7.952355,-1.59963 7.9523549,1.5996342 0 0 1 7.952355,1.59963 z" /></g><path
         id="path15065"
         style="color:#000000;fill:#ffffff;fill-rule:evenodd;stroke-width:0.999999"
         d="m 82.372287,-696.11305 -1.974379,1.14067 h -0.06314 v 0.0366 l -0.09838,0.0567 -0.22146,0.12852 0.319837,0.18432 v 0.0371 h 0.06406 l 1.973463,1.13838 v -1.13838 h 2.037523 v 1.13838 l 1.97346,-1.13838 h 0.0641 v -0.0371 l 0.319837,-0.18432 -0.221456,-0.12852 -0.09837,-0.0567 v -0.0366 h -0.06313 l -1.974372,-1.14067 v 1.14067 h -2.037521 z" /><g
         id="g15073"
         transform="matrix(0.88543584,0,0,0.8850531,14.058358,-68.373381)"
         style="stroke-width:1.12963"><text
           xml:space="preserve"
           style="font-style:normal;font-variant:normal;font-weight:normal;font-stretch:normal;font-size:6.35px;line-height:1.25;font-family:'PT Sans';-inkscape-font-specification:'PT Sans';text-align:center;letter-spacing:0px;word-spacing:0px;text-anchor:middle;fill:#ffffff;fill-opacity:1;stroke:none;stroke-width:0.298881"
           x="90.05365"
           y="-690.65753"
           id="text15069"><tspan
             sodipodi:role="line"
             id="tspan15067"
             x="90.05365"
             y="-690.65753"
             style="font-size:3.88056px;text-align:center;text-anchor:middle;fill:#ffffff;stroke-width:0.298881">DB 2</tspan></text><path
           id="path15071"
           style="opacity:1;vector-effect:none;fill:none;stroke:#ffffff;stroke-width:0.298881px;stop-color:#000000;stop-opacity:1"
           d="m 98.153461,-697.77287 v 11.52978 c -1.2e-5,0.88345 -3.560396,1.7319 -7.952352,1.7319 -4.391956,0 -7.952343,-0.84845 -7.952355,-1.7319 v -11.52978 m 15.90471,-4.3e-4 a 7.9523549,1.5996342 0 0 1 -7.952355,1.59964 7.9523549,1.5996342 0 0 1 -7.952355,-1.59964 7.9523549,1.5996342 0 0 1 7.952355,-1.59963 7.9523549,1.5996342 0 0 1 7.952355,1.59963 z" /></g><path
         id="path15075"
         style="color:#000000;fill:#ffffff;fill-rule:evenodd;stroke-width:0.999999"
         d="m 82.372287,-682.13997 -1.974379,1.14066 h -0.06314 v 0.0366 l -0.09838,0.0567 -0.22146,0.12852 0.319837,0.18432 v 0.0371 h 0.06406 l 1.973463,1.13837 v -1.13837 h 2.037523 v 1.13837 l 1.97346,-1.13837 h 0.0641 v -0.0371 l 0.319837,-0.18432 -0.221456,-0.12852 -0.09837,-0.0567 v -0.0366 h -0.06313 l -1.974372,-1.14066 v 1.14066 h -2.037521 z" /><g
         id="g15083"
         transform="matrix(0.88543584,0,0,0.8850531,14.058358,-54.400254)"
         style="stroke-width:1.12963"><text
           xml:space="preserve"
           style="font-style:normal;font-variant:normal;font-weight:normal;font-stretch:normal;font-size:6.35px;line-height:1.25;font-family:'PT Sans';-inkscape-font-specification:'PT Sans';text-align:center;letter-spacing:0px;word-spacing:0px;text-anchor:middle;fill:#ffffff;fill-opacity:1;stroke:none;stroke-width:0.298881"
           x="90.05365"
           y="-690.65753"
           id="text15079"><tspan
             sodipodi:role="line"
             id="tspan15077"
             x="90.05365"
             y="-690.65753"
             style="font-size:3.88056px;text-align:center;text-anchor:middle;fill:#ffffff;stroke-width:0.298881">DB 3</tspan></text><path
           id="path15081"
           style="opacity:1;vector-effect:none;fill:none;stroke:#ffffff;stroke-width:0.298881px;stop-color:#000000;stop-opacity:1"
           d="m 98.153461,-697.77287 v 11.52978 c -1.2e-5,0.88345 -3.560396,1.7319 -7.952352,1.7319 -4.391956,0 -7.952343,-0.84845 -7.952355,-1.7319 v -11.52978 m 15.90471,-4.3e-4 a 7.9523549,1.5996342 0 0 1 -7.952355,1.59964 7.9523549,1.5996342 0 0 1 -7.952355,-1.59964 7.9523549,1.5996342 0 0 1 7.952355,-1.59963 7.9523549,1.5996342 0 0 1 7.952355,1.59963 z" /></g><path
         id="path15085"
         style="color:#000000;fill:#ffffff;fill-rule:evenodd;stroke-width:0.999999"
         d="m 82.372287,-668.16684 -1.974379,1.14066 h -0.06314 v 0.0366 l -0.09838,0.0567 -0.22146,0.12852 0.319837,0.18432 v 0.0371 h 0.06406 l 1.973463,1.13837 v -1.13837 h 2.037523 v 1.13837 l 1.97346,-1.13837 h 0.0641 v -0.0371 l 0.319837,-0.18432 -0.221456,-0.12852 -0.09837,-0.0567 v -0.0366 h -0.06313 l -1.974372,-1.14066 v 1.14066 h -2.037521 z" /></g></g></svg>
