<?xml version="1.0" encoding="UTF-8" standalone="no"?>
<svg
   inkscape:export-ydpi="300.03751"
   inkscape:export-xdpi="300.03751"
   inkscape:export-filename="/Users/chainz/Documents/Projects/mystack/tech/assets/2020-09-04-diagrams.png"
   sodipodi:docname="data-oriented-web-simplified.svg"
   inkscape:version="1.2.1 (9c6d41e, 2022-07-14)"
   id="svg8"
   version="1.1"
   viewBox="0 0 100 22"
   height="22mm"
   width="100mm"
   xml:space="preserve"
   xmlns:inkscape="http://www.inkscape.org/namespaces/inkscape"
   xmlns:sodipodi="http://sodipodi.sourceforge.net/DTD/sodipodi-0.dtd"
   xmlns="http://www.w3.org/2000/svg"
   xmlns:svg="http://www.w3.org/2000/svg"
   xmlns:rdf="http://www.w3.org/1999/02/22-rdf-syntax-ns#"
   xmlns:cc="http://creativecommons.org/ns#"
   xmlns:dc="http://purl.org/dc/elements/1.1/"><defs
     id="defs2"><marker
       inkscape:isstock="true"
       style="overflow:visible"
       id="marker2994"
       refX="0"
       refY="0"
       orient="auto"
       inkscape:stockid="Arrow1Lend"
       viewBox="0 0 17.773854 10.156488"
       markerWidth="7.9999995"
       markerHeight="4.5714283"
       preserveAspectRatio="xMidYMid"><path
         transform="matrix(-0.8,0,0,-0.8,-10,0)"
         style="fill:#71589b;fill-opacity:1;fill-rule:evenodd;stroke:#71589b;stroke-width:1pt;stroke-opacity:1"
         d="M 0,0 5,-5 -12.5,0 5,5 Z"
         id="path2992" /></marker><marker
       inkscape:stockid="Arrow1Lend"
       orient="auto"
       refY="0"
       refX="0"
       id="marker1881"
       style="overflow:visible"
       inkscape:isstock="true"
       viewBox="0 0 17.773854 10.156488"
       markerWidth="17.773853"
       markerHeight="10.156488"
       preserveAspectRatio="xMidYMid"><path
         id="path1879"
         d="M 0,0 5,-5 -12.5,0 5,5 Z"
         style="fill:#71589b;fill-opacity:1;fill-rule:evenodd;stroke:#71589b;stroke-width:1pt;stroke-opacity:1"
         transform="matrix(-0.8,0,0,-0.8,-10,0)" /></marker><marker
       inkscape:stockid="Arrow1Lend"
       orient="auto"
       refY="0"
       refX="0"
       id="marker1528"
       style="overflow:visible"
       inkscape:isstock="true"><path
         id="path1526"
         d="M 0,0 5,-5 -12.5,0 5,5 Z"
         style="fill:#71589b;fill-opacity:1;fill-rule:evenodd;stroke:#71589b;stroke-width:1pt;stroke-opacity:1"
         transform="matrix(-0.8,0,0,-0.8,-10,0)" /></marker><marker
       inkscape:stockid="Arrow1Lend"
       orient="auto"
       refY="0"
       refX="0"
       id="marker1436"
       style="overflow:visible"
       inkscape:isstock="true"><path
         id="path1434"
         d="M 0,0 5,-5 -12.5,0 5,5 Z"
         style="fill:#71589b;fill-opacity:1;fill-rule:evenodd;stroke:#71589b;stroke-width:1pt;stroke-opacity:1"
         transform="matrix(-0.8,0,0,-0.8,-10,0)" /></marker><marker
       inkscape:isstock="true"
       style="overflow:visible"
       id="marker937"
       refX="0"
       refY="0"
       orient="auto"
       inkscape:stockid="Arrow1Lend"><path
         transform="matrix(-0.8,0,0,-0.8,-10,0)"
         style="fill:#71589b;fill-opacity:1;fill-rule:evenodd;stroke:#71589b;stroke-width:1pt;stroke-opacity:1"
         d="M 0,0 5,-5 -12.5,0 5,5 Z"
         id="path935" /></marker><marker
       inkscape:isstock="true"
       style="overflow:visible"
       id="marker1923"
       refX="0"
       refY="0"
       orient="auto"
       inkscape:stockid="Arrow1Lend"><path
         transform="matrix(-0.8,0,0,-0.8,-10,0)"
         style="fill:#71589b;fill-opacity:1;fill-rule:evenodd;stroke:#71589b;stroke-width:1pt;stroke-opacity:1"
         d="M 0,0 5,-5 -12.5,0 5,5 Z"
         id="path1921" /></marker><marker
       inkscape:isstock="true"
       style="overflow:visible"
       id="marker1871"
       refX="0"
       refY="0"
       orient="auto"
       inkscape:stockid="Arrow1Lend"><path
         transform="matrix(-0.8,0,0,-0.8,-10,0)"
         style="fill:#71589b;fill-opacity:1;fill-rule:evenodd;stroke:#71589b;stroke-width:1pt;stroke-opacity:1"
         d="M 0,0 5,-5 -12.5,0 5,5 Z"
         id="path1869" /></marker><marker
       inkscape:stockid="Arrow1Lend"
       orient="auto"
       refY="0"
       refX="0"
       id="marker1762"
       style="overflow:visible"
       inkscape:isstock="true"><path
         id="path1760"
         d="M 0,0 5,-5 -12.5,0 5,5 Z"
         style="fill:#71589b;fill-opacity:1;fill-rule:evenodd;stroke:#71589b;stroke-width:1pt;stroke-opacity:1"
         transform="matrix(-0.8,0,0,-0.8,-10,0)" /></marker><marker
       inkscape:stockid="Arrow1Lend"
       orient="auto"
       refY="0"
       refX="0"
       id="marker1752"
       style="overflow:visible"
       inkscape:isstock="true"
       viewBox="0 0 17.773854 10.156488"
       markerWidth="17.773853"
       markerHeight="10.156488"
       preserveAspectRatio="xMidYMid"><path
         id="path1750"
         d="M 0,0 5,-5 -12.5,0 5,5 Z"
         style="fill:#71589b;fill-opacity:1;fill-rule:evenodd;stroke:#71589b;stroke-width:1pt;stroke-opacity:1"
         transform="matrix(-0.8,0,0,-0.8,-10,0)" /></marker><marker
       inkscape:isstock="true"
       style="overflow:visible"
       id="marker1542"
       refX="0"
       refY="0"
       orient="auto"
       inkscape:stockid="Arrow1Lend"><path
         transform="matrix(-0.8,0,0,-0.8,-10,0)"
         style="fill:#71589b;fill-opacity:1;fill-rule:evenodd;stroke:#71589b;stroke-width:1pt;stroke-opacity:1"
         d="M 0,0 5,-5 -12.5,0 5,5 Z"
         id="path1540" /></marker><marker
       inkscape:isstock="true"
       style="overflow:visible"
       id="Arrow1Lstart"
       refX="0"
       refY="0"
       orient="auto"
       inkscape:stockid="Arrow1Lstart"><path
         transform="matrix(0.8,0,0,0.8,10,0)"
         style="fill:#000000;fill-opacity:1;fill-rule:evenodd;stroke:#000000;stroke-width:1pt;stroke-opacity:1"
         d="M 0,0 5,-5 -12.5,0 5,5 Z"
         id="path1205" /></marker><marker
       inkscape:isstock="true"
       style="overflow:visible"
       id="marker1528-6"
       refX="0"
       refY="0"
       orient="auto"
       inkscape:stockid="Arrow1Lend"><path
         transform="matrix(-0.8,0,0,-0.8,-10,0)"
         style="fill:#71589b;fill-opacity:1;fill-rule:evenodd;stroke:#71589b;stroke-width:1pt;stroke-opacity:1"
         d="M 0,0 5,-5 -12.5,0 5,5 Z"
         id="path1526-5" /></marker></defs><sodipodi:namedview
     inkscape:snap-global="true"
     height="250mm"
     inkscape:document-rotation="0"
     inkscape:guide-bbox="true"
     inkscape:window-maximized="0"
     inkscape:window-y="38"
     inkscape:window-x="0"
     inkscape:window-height="1005"
     inkscape:window-width="1680"
     showguides="true"
     width="144mm"
     showgrid="false"
     inkscape:current-layer="g24320"
     inkscape:document-units="mm"
     inkscape:cy="74.905145"
     inkscape:cx="193.54575"
     inkscape:zoom="3.063875"
     inkscape:pageshadow="2"
     inkscape:pageopacity="0"
     borderopacity="1.0"
     bordercolor="#666666"
     pagecolor="#0b2318"
     id="base"
     inkscape:showpageshadow="2"
     inkscape:pagecheckerboard="0"
     inkscape:deskcolor="#d1d1d1" /><metadata
     id="metadata5"><rdf:RDF><cc:Work
         rdf:about=""><dc:format>image/svg+xml</dc:format><dc:type
           rdf:resource="http://purl.org/dc/dcmitype/StillImage" /></cc:Work></rdf:RDF></metadata><g
     transform="translate(0,703)"
     id="layer1"
     inkscape:groupmode="layer"
     inkscape:label="Layer 1"><g
       transform="translate(-1.0992445,-0.53617761)"
       id="g24320"><g
         id="g918"
         transform="translate(-69.410881,-5.5404877)"><text
           xml:space="preserve"
           style="font-style:normal;font-variant:normal;font-weight:normal;font-stretch:normal;font-size:6.35px;line-height:1.25;font-family:'PT Sans';-inkscape-font-specification:'PT Sans';text-align:center;letter-spacing:0px;word-spacing:0px;text-anchor:middle;fill:#ffffff;fill-opacity:1;stroke:none;stroke-width:0.264583"
           x="89.93737"
           y="-685.117"
           id="text28624"><tspan
             sodipodi:role="line"
             id="tspan28622"
             x="89.93737"
             y="-685.117"
             style="font-size:3.88056px;text-align:center;text-anchor:middle;fill:#ffffff;stroke-width:0.264583">Browser</tspan></text><rect
           style="font-variation-settings:normal;fill:none;fill-opacity:1;stroke:#ffffff;stroke-width:0.264583px;stroke-linecap:butt;stroke-linejoin:miter;stroke-miterlimit:4;stroke-dasharray:none;stroke-dashoffset:0;stroke-opacity:1;stop-color:#000000"
           id="rect28626"
           width="15.904707"
           height="11.529785"
           x="82.132477"
           y="-692.23236"
           ry="0" /></g><g
         id="g9558"
         transform="translate(-8.6765709)"><text
           xml:space="preserve"
           style="font-style:normal;font-variant:normal;font-weight:normal;font-stretch:normal;font-size:6.35px;line-height:1.25;font-family:'PT Sans';-inkscape-font-specification:'PT Sans';text-align:center;letter-spacing:0px;word-spacing:0px;text-anchor:middle;fill:#ffffff;fill-opacity:1;stroke:none;stroke-width:0.264583"
           x="90.05365"
           y="-690.65753"
           id="text922"><tspan
             sodipodi:role="line"
             id="tspan920"
             x="90.05365"
             y="-690.65753"
             style="font-size:3.88056px;text-align:center;text-anchor:middle;fill:#ffffff;stroke-width:0.264583">Database</tspan></text><path
           id="ellipse1104"
           style="opacity:1;vector-effect:none;fill:none;stroke:#ffffff;stroke-width:0.264583px;stop-color:#000000;stop-opacity:1"
           d="m 98.153461,-697.77287 v 11.52978 c -1.2e-5,0.88345 -3.560396,1.7319 -7.952352,1.7319 -4.391956,0 -7.952343,-0.84845 -7.952355,-1.7319 v -11.52978 m 15.90471,-4.3e-4 a 7.9523549,1.5996342 0 0 1 -7.952355,1.59964 7.9523549,1.5996342 0 0 1 -7.952355,-1.59964 7.9523549,1.5996342 0 0 1 7.952355,-1.59963 7.9523549,1.5996342 0 0 1 7.952355,1.59963 z" /></g><path
         id="path1195"
         style="color:#000000;fill:#ffffff;fill-rule:evenodd"
         d="m 28.758594,-694.8326 h 42.018928 v 1.28674 l 2.66237,-1.53685 -0.250114,-0.1447 -2.412256,-1.39423 v 1.28881 H 28.758594 Z"
         sodipodi:nodetypes="ccccccccc" /><text
         xml:space="preserve"
         style="font-style:normal;font-variant:normal;font-weight:normal;font-stretch:normal;font-size:6.35px;line-height:0.5;font-family:'PT Sans';-inkscape-font-specification:'PT Sans';text-align:center;letter-spacing:0px;word-spacing:0px;text-anchor:middle;fill:#ffffff;fill-opacity:1;stroke:none;stroke-width:0.264583"
         x="38.210606"
         y="-684.75256"
         id="text1203"><tspan
           sodipodi:role="line"
           x="38.210606"
           y="-684.75256"
           style="font-size:3.88056px;text-align:center;text-anchor:middle;fill:#ffffff;stroke-width:0.264583"
           id="tspan1201">HTML</tspan></text><text
         xml:space="preserve"
         style="font-style:normal;font-variant:normal;font-weight:normal;font-stretch:normal;font-size:6.35px;line-height:0.5;font-family:'PT Sans';-inkscape-font-specification:'PT Sans';text-align:center;letter-spacing:0px;word-spacing:0px;text-anchor:middle;fill:#ffffff;fill-opacity:1;stroke:none;stroke-width:0.264583"
         x="38.261055"
         y="-696.91949"
         id="text1449"><tspan
           sodipodi:role="line"
           x="38.261055"
           y="-696.91949"
           style="font-size:3.88056px;text-align:center;text-anchor:middle;fill:#ffffff;stroke-width:0.264583"
           id="tspan1447">Requests</tspan></text><path
         id="path1451"
         style="color:#000000;fill:#ffffff;fill-rule:evenodd"
         d="M 73.439892,-688.82191 H 31.420964 v 1.28674 l -2.66237,-1.53685 0.250114,-0.1447 2.412256,-1.39423 v 1.28881 h 42.018928 z"
         sodipodi:nodetypes="ccccccccc" /><g
         id="g9563"
         transform="translate(-8.4220415)"><path
           id="path1505"
           style="font-variation-settings:normal;opacity:1;fill:#0b2318;fill-opacity:1;stroke:#ffffff;stroke-width:0.264583px;stroke-linecap:butt;stroke-linejoin:miter;stroke-miterlimit:4;stroke-dasharray:none;stroke-dashoffset:0;stroke-opacity:1;stop-color:#000000;stop-opacity:1"
           d="m 61.084143,-702.33153 a 4.7927461,4.7927461 0 0 0 -4.792989,4.79299 4.7927461,4.7927461 0 0 0 0.0088,0.22789 4.7927461,4.7927461 0 0 0 -3.855062,4.69687 4.7927461,4.7927461 0 0 0 2.882512,4.3925 4.7927461,4.7927461 0 0 0 -0.03307,0.53278 4.7927461,4.7927461 0 0 0 4.792989,4.79247 4.7927461,4.7927461 0 0 0 2.306319,-0.59427 8.5924006,7.9275575 0 0 0 2.162659,0.33073 4.7927461,4.7927461 0 0 0 4.232816,2.55178 4.7927461,4.7927461 0 0 0 4.792473,-4.79248 4.7927461,4.7927461 0 0 0 -0.02584,-0.49816 4.7927461,4.7927461 0 0 0 1.12913,-3.0856 4.7927461,4.7927461 0 0 0 -1.30793,-3.28972 8.5924006,7.9275575 0 0 0 -0.186035,-0.82475 4.7927461,4.7927461 0 0 0 0.390674,-1.88723 4.7927461,4.7927461 0 0 0 -4.792473,-4.79299 4.7927461,4.7927461 0 0 0 -2.724898,0.85112 8.5924006,7.9275575 0 0 0 -0.406693,-0.0429 4.7927461,4.7927461 0 0 0 -4.573365,-3.36103 z" /><text
           xml:space="preserve"
           style="font-style:normal;font-variant:normal;font-weight:normal;font-stretch:normal;font-size:6.35px;line-height:0.5;font-family:'PT Sans';-inkscape-font-specification:'PT Sans';text-align:center;letter-spacing:0px;word-spacing:0px;text-anchor:middle;fill:#ffffff;fill-opacity:1;stroke:none;stroke-width:0.264583"
           x="63.625031"
           y="-690.49951"
           id="text3080"><tspan
             sodipodi:role="line"
             x="63.625031"
             y="-690.49951"
             style="font-size:3.88056px;text-align:center;text-anchor:middle;fill:#ffffff;stroke-width:0.264583"
             id="tspan3078">Something</tspan></text></g></g></g></svg>
