<?xml version="1.0" encoding="UTF-8" standalone="no"?>
<svg
   inkscape:export-ydpi="300.03751"
   inkscape:export-xdpi="300.03751"
   inkscape:export-filename="/Users/chainz/Documents/Projects/mystack/tech/assets/2020-09-04-diagrams.png"
   sodipodi:docname="multiply-itemwise.svg"
   inkscape:version="1.2.1 (9c6d41e, 2022-07-14)"
   id="svg8"
   version="1.1"
   viewBox="0 0 100 55"
   height="55mm"
   width="100mm"
   xml:space="preserve"
   xmlns:inkscape="http://www.inkscape.org/namespaces/inkscape"
   xmlns:sodipodi="http://sodipodi.sourceforge.net/DTD/sodipodi-0.dtd"
   xmlns="http://www.w3.org/2000/svg"
   xmlns:svg="http://www.w3.org/2000/svg"
   xmlns:rdf="http://www.w3.org/1999/02/22-rdf-syntax-ns#"
   xmlns:cc="http://creativecommons.org/ns#"
   xmlns:dc="http://purl.org/dc/elements/1.1/"><defs
     id="defs2"><marker
       inkscape:isstock="true"
       style="overflow:visible"
       id="marker2994"
       refX="0"
       refY="0"
       orient="auto"
       inkscape:stockid="Arrow1Lend"
       viewBox="0 0 17.773854 10.156488"
       markerWidth="7.9999995"
       markerHeight="4.5714283"
       preserveAspectRatio="xMidYMid"><path
         transform="matrix(-0.8,0,0,-0.8,-10,0)"
         style="fill:#71589b;fill-opacity:1;fill-rule:evenodd;stroke:#71589b;stroke-width:1pt;stroke-opacity:1"
         d="M 0,0 5,-5 -12.5,0 5,5 Z"
         id="path2992" /></marker><marker
       inkscape:stockid="Arrow1Lend"
       orient="auto"
       refY="0"
       refX="0"
       id="marker1881"
       style="overflow:visible"
       inkscape:isstock="true"
       viewBox="0 0 17.773854 10.156488"
       markerWidth="17.773853"
       markerHeight="10.156488"
       preserveAspectRatio="xMidYMid"><path
         id="path1879"
         d="M 0,0 5,-5 -12.5,0 5,5 Z"
         style="fill:#71589b;fill-opacity:1;fill-rule:evenodd;stroke:#71589b;stroke-width:1pt;stroke-opacity:1"
         transform="matrix(-0.8,0,0,-0.8,-10,0)" /></marker><marker
       inkscape:stockid="Arrow1Lend"
       orient="auto"
       refY="0"
       refX="0"
       id="marker1528"
       style="overflow:visible"
       inkscape:isstock="true"><path
         id="path1526"
         d="M 0,0 5,-5 -12.5,0 5,5 Z"
         style="fill:#71589b;fill-opacity:1;fill-rule:evenodd;stroke:#71589b;stroke-width:1pt;stroke-opacity:1"
         transform="matrix(-0.8,0,0,-0.8,-10,0)" /></marker><marker
       inkscape:stockid="Arrow1Lend"
       orient="auto"
       refY="0"
       refX="0"
       id="marker1436"
       style="overflow:visible"
       inkscape:isstock="true"><path
         id="path1434"
         d="M 0,0 5,-5 -12.5,0 5,5 Z"
         style="fill:#71589b;fill-opacity:1;fill-rule:evenodd;stroke:#71589b;stroke-width:1pt;stroke-opacity:1"
         transform="matrix(-0.8,0,0,-0.8,-10,0)" /></marker><marker
       inkscape:isstock="true"
       style="overflow:visible"
       id="marker937"
       refX="0"
       refY="0"
       orient="auto"
       inkscape:stockid="Arrow1Lend"><path
         transform="matrix(-0.8,0,0,-0.8,-10,0)"
         style="fill:#71589b;fill-opacity:1;fill-rule:evenodd;stroke:#71589b;stroke-width:1pt;stroke-opacity:1"
         d="M 0,0 5,-5 -12.5,0 5,5 Z"
         id="path935" /></marker><marker
       inkscape:isstock="true"
       style="overflow:visible"
       id="marker1923"
       refX="0"
       refY="0"
       orient="auto"
       inkscape:stockid="Arrow1Lend"><path
         transform="matrix(-0.8,0,0,-0.8,-10,0)"
         style="fill:#71589b;fill-opacity:1;fill-rule:evenodd;stroke:#71589b;stroke-width:1pt;stroke-opacity:1"
         d="M 0,0 5,-5 -12.5,0 5,5 Z"
         id="path1921" /></marker><marker
       inkscape:isstock="true"
       style="overflow:visible"
       id="marker1871"
       refX="0"
       refY="0"
       orient="auto"
       inkscape:stockid="Arrow1Lend"><path
         transform="matrix(-0.8,0,0,-0.8,-10,0)"
         style="fill:#71589b;fill-opacity:1;fill-rule:evenodd;stroke:#71589b;stroke-width:1pt;stroke-opacity:1"
         d="M 0,0 5,-5 -12.5,0 5,5 Z"
         id="path1869" /></marker><marker
       inkscape:stockid="Arrow1Lend"
       orient="auto"
       refY="0"
       refX="0"
       id="marker1762"
       style="overflow:visible"
       inkscape:isstock="true"><path
         id="path1760"
         d="M 0,0 5,-5 -12.5,0 5,5 Z"
         style="fill:#71589b;fill-opacity:1;fill-rule:evenodd;stroke:#71589b;stroke-width:1pt;stroke-opacity:1"
         transform="matrix(-0.8,0,0,-0.8,-10,0)" /></marker><marker
       inkscape:stockid="Arrow1Lend"
       orient="auto"
       refY="0"
       refX="0"
       id="marker1752"
       style="overflow:visible"
       inkscape:isstock="true"
       viewBox="0 0 17.773854 10.156488"
       markerWidth="17.773853"
       markerHeight="10.156488"
       preserveAspectRatio="xMidYMid"><path
         id="path1750"
         d="M 0,0 5,-5 -12.5,0 5,5 Z"
         style="fill:#71589b;fill-opacity:1;fill-rule:evenodd;stroke:#71589b;stroke-width:1pt;stroke-opacity:1"
         transform="matrix(-0.8,0,0,-0.8,-10,0)" /></marker><marker
       inkscape:isstock="true"
       style="overflow:visible"
       id="marker1542"
       refX="0"
       refY="0"
       orient="auto"
       inkscape:stockid="Arrow1Lend"><path
         transform="matrix(-0.8,0,0,-0.8,-10,0)"
         style="fill:#71589b;fill-opacity:1;fill-rule:evenodd;stroke:#71589b;stroke-width:1pt;stroke-opacity:1"
         d="M 0,0 5,-5 -12.5,0 5,5 Z"
         id="path1540" /></marker><marker
       inkscape:isstock="true"
       style="overflow:visible"
       id="Arrow1Lstart"
       refX="0"
       refY="0"
       orient="auto"
       inkscape:stockid="Arrow1Lstart"><path
         transform="matrix(0.8,0,0,0.8,10,0)"
         style="fill:#000000;fill-opacity:1;fill-rule:evenodd;stroke:#000000;stroke-width:1pt;stroke-opacity:1"
         d="M 0,0 5,-5 -12.5,0 5,5 Z"
         id="path1205" /></marker><marker
       inkscape:isstock="true"
       style="overflow:visible"
       id="marker1528-6"
       refX="0"
       refY="0"
       orient="auto"
       inkscape:stockid="Arrow1Lend"><path
         transform="matrix(-0.8,0,0,-0.8,-10,0)"
         style="fill:#71589b;fill-opacity:1;fill-rule:evenodd;stroke:#71589b;stroke-width:1pt;stroke-opacity:1"
         d="M 0,0 5,-5 -12.5,0 5,5 Z"
         id="path1526-5" /></marker></defs><sodipodi:namedview
     inkscape:snap-global="true"
     height="250mm"
     inkscape:document-rotation="0"
     inkscape:guide-bbox="true"
     inkscape:window-maximized="0"
     inkscape:window-y="38"
     inkscape:window-x="0"
     inkscape:window-height="1005"
     inkscape:window-width="1680"
     showguides="false"
     width="144mm"
     showgrid="false"
     inkscape:current-layer="g24320"
     inkscape:document-units="mm"
     inkscape:cy="80.669074"
     inkscape:cx="192.77663"
     inkscape:zoom="2.8945417"
     inkscape:pageshadow="2"
     inkscape:pageopacity="0"
     borderopacity="1.0"
     bordercolor="#666666"
     pagecolor="#0b2318"
     id="base"
     inkscape:showpageshadow="2"
     inkscape:pagecheckerboard="0"
     inkscape:deskcolor="#d1d1d1" /><metadata
     id="metadata5"><rdf:RDF><cc:Work
         rdf:about=""><dc:format>image/svg+xml</dc:format><dc:type
           rdf:resource="http://purl.org/dc/dcmitype/StillImage" /></cc:Work></rdf:RDF></metadata><g
     transform="translate(0,703)"
     id="layer1"
     inkscape:groupmode="layer"
     inkscape:label="Layer 1"><g
       transform="translate(-1.0992445,-0.53617761)"
       id="g24320"><text
         xml:space="preserve"
         style="font-style:normal;font-variant:normal;font-weight:normal;font-stretch:normal;font-size:6.35px;line-height:0.5;font-family:'PT Sans';-inkscape-font-specification:'PT Sans';text-align:start;letter-spacing:0px;word-spacing:0px;text-anchor:start;fill:#ffffff;fill-opacity:1;stroke:none;stroke-width:0.264583"
         x="18.328783"
         y="-670.20117"
         id="text7962"><tspan
           sodipodi:role="line"
           x="18.328783"
           y="-670.20117"
           style="font-size:3.88056px;text-align:start;text-anchor:start;fill:#ffffff;stroke-width:0.264583"
           id="tspan8470">1. load</tspan></text><text
         xml:space="preserve"
         style="font-style:normal;font-variant:normal;font-weight:normal;font-stretch:normal;font-size:6.35px;line-height:0.5;font-family:'PT Sans';-inkscape-font-specification:'PT Sans';text-align:start;letter-spacing:0px;word-spacing:0px;text-anchor:start;fill:#ffffff;fill-opacity:1;stroke:none;stroke-width:0.264583"
         x="33.50246"
         y="-696.09283"
         id="text8593"><tspan
           sodipodi:role="line"
           x="33.50246"
           y="-696.09283"
           style="font-size:3.88056px;text-align:start;text-anchor:start;fill:#ffffff;stroke-width:0.264583"
           id="tspan8591">2. mul</tspan></text><text
         xml:space="preserve"
         style="font-style:normal;font-variant:normal;font-weight:normal;font-stretch:normal;font-size:6.35px;line-height:0.5;font-family:'PT Sans';-inkscape-font-specification:'PT Sans';text-align:start;letter-spacing:0px;word-spacing:0px;text-anchor:start;fill:#ffffff;fill-opacity:1;stroke:none;stroke-width:0.264583"
         x="47.305016"
         y="-670.22443"
         id="text8603"><tspan
           sodipodi:role="line"
           x="47.305016"
           y="-670.22443"
           style="font-size:3.88056px;text-align:start;text-anchor:start;fill:#ffffff;stroke-width:0.264583"
           id="tspan8601">3. store</tspan></text><g
         id="g8660"
         transform="translate(-28.956863,19.755544)"
         style="fill:#ffffff"><text
           xml:space="preserve"
           style="font-style:normal;font-variant:normal;font-weight:normal;font-stretch:normal;font-size:6.35px;line-height:0.5;font-family:'PT Sans';-inkscape-font-specification:'PT Sans';text-align:center;letter-spacing:0px;word-spacing:0px;text-anchor:middle;fill:#ffffff;fill-opacity:1;stroke:none;stroke-width:0.264583"
           x="84.843597"
           y="-679.59369"
           id="text7956"><tspan
             sodipodi:role="line"
             x="84.843597"
             y="-679.59369"
             style="font-size:3.88056px;text-align:center;text-anchor:middle;fill:#ffffff;stroke-width:0.264583"
             id="tspan7954">Memory (incl. caches)</tspan></text><g
           id="g8615"
           style="fill:#ffffff"><text
             xml:space="preserve"
             style="font-style:normal;font-variant:normal;font-weight:normal;font-stretch:normal;font-size:6.35px;line-height:0.5;font-family:'PT Sans';-inkscape-font-specification:'PT Sans';text-align:center;letter-spacing:0px;word-spacing:0px;text-anchor:middle;fill:#ffffff;fill-opacity:1;stroke:none;stroke-width:0.264583"
             x="67.141235"
             y="-672.87579"
             id="text7966"><tspan
               sodipodi:role="line"
               x="67.141235"
               y="-672.87579"
               style="font-size:3.88056px;text-align:center;text-anchor:middle;fill:#ffffff;stroke-width:0.264583"
               id="tspan7964">loc 1</tspan></text><text
             xml:space="preserve"
             style="font-style:normal;font-variant:normal;font-weight:normal;font-stretch:normal;font-size:6.35px;line-height:0.5;font-family:'PT Sans';-inkscape-font-specification:'PT Sans';text-align:center;letter-spacing:0px;word-spacing:0px;text-anchor:middle;fill:#ffffff;fill-opacity:1;stroke:none;stroke-width:0.264583"
             x="79.290695"
             y="-672.87579"
             id="text8481"><tspan
               sodipodi:role="line"
               x="79.290695"
               y="-672.87579"
               style="font-size:3.88056px;text-align:center;text-anchor:middle;fill:#ffffff;stroke-width:0.264583"
               id="tspan8479">loc 2</tspan></text><text
             xml:space="preserve"
             style="font-style:normal;font-variant:normal;font-weight:normal;font-stretch:normal;font-size:6.35px;line-height:0.5;font-family:'PT Sans';-inkscape-font-specification:'PT Sans';text-align:center;letter-spacing:0px;word-spacing:0px;text-anchor:middle;fill:#ffffff;fill-opacity:1;stroke:none;stroke-width:0.264583"
             x="91.428513"
             y="-672.87579"
             id="text8485"><tspan
               sodipodi:role="line"
               x="91.428513"
               y="-672.87579"
               style="font-size:3.88056px;text-align:center;text-anchor:middle;fill:#ffffff;stroke-width:0.264583"
               id="tspan8483">loc 3</tspan></text><text
             xml:space="preserve"
             style="font-style:normal;font-variant:normal;font-weight:normal;font-stretch:normal;font-size:6.35px;line-height:0.5;font-family:'PT Sans';-inkscape-font-specification:'PT Sans';text-align:center;letter-spacing:0px;word-spacing:0px;text-anchor:middle;fill:#ffffff;fill-opacity:1;stroke:none;stroke-width:0.264583"
             x="103.6129"
             y="-672.87579"
             id="text8489"><tspan
               sodipodi:role="line"
               x="103.6129"
               y="-672.87579"
               style="font-size:3.88056px;text-align:center;text-anchor:middle;fill:#ffffff;stroke-width:0.264583"
               id="tspan8487">loc 4</tspan></text></g></g><rect
         style="font-variation-settings:normal;fill:none;fill-opacity:1;stroke:#ffffff;stroke-width:0.264583px;stroke-linecap:butt;stroke-linejoin:miter;stroke-miterlimit:4;stroke-dasharray:none;stroke-dashoffset:0;stroke-opacity:1;stop-color:#000000"
         id="rect8605"
         width="53.838894"
         height="13.266551"
         x="29.626879"
         y="-664.47064"
         ry="0" /><rect
         style="font-variation-settings:normal;fill:none;fill-opacity:1;stroke:#ffffff;stroke-width:0.264583px;stroke-linecap:butt;stroke-linejoin:miter;stroke-miterlimit:4;stroke-dasharray:none;stroke-dashoffset:0;stroke-opacity:1;stop-color:#000000"
         id="rect8525"
         width="53.838894"
         height="13.266551"
         x="29.626879"
         y="-693.26404"
         ry="0" /><g
         id="g8684"
         transform="translate(-27.513296,-9.425908)"
         style="fill:#ffffff"><text
           xml:space="preserve"
           style="font-style:normal;font-variant:normal;font-weight:normal;font-stretch:normal;font-size:6.35px;line-height:0.5;font-family:'PT Sans';-inkscape-font-specification:'PT Sans';text-align:center;letter-spacing:0px;word-spacing:0px;text-anchor:middle;fill:#ffffff;fill-opacity:1;stroke:none;stroke-width:0.264583"
           x="84.843597"
           y="-679.59369"
           id="text8664"><tspan
             sodipodi:role="line"
             x="84.843597"
             y="-679.59369"
             style="font-size:3.88056px;text-align:center;text-anchor:middle;fill:#ffffff;stroke-width:0.264583"
             id="tspan8662">CPU</tspan></text><g
           id="g8682"
           style="fill:#ffffff"><text
             xml:space="preserve"
             style="font-style:normal;font-variant:normal;font-weight:normal;font-stretch:normal;font-size:6.35px;line-height:0.5;font-family:'PT Sans';-inkscape-font-specification:'PT Sans';text-align:center;letter-spacing:0px;word-spacing:0px;text-anchor:middle;fill:#ffffff;fill-opacity:1;stroke:none;stroke-width:0.264583"
             x="67.141235"
             y="-672.87579"
             id="text8668"><tspan
               sodipodi:role="line"
               x="67.141235"
               y="-672.87579"
               style="font-size:3.88056px;text-align:center;text-anchor:middle;fill:#ffffff;stroke-width:0.264583"
               id="tspan8666">reg 1</tspan></text><text
             xml:space="preserve"
             style="font-style:normal;font-variant:normal;font-weight:normal;font-stretch:normal;font-size:6.35px;line-height:0.5;font-family:'PT Sans';-inkscape-font-specification:'PT Sans';text-align:center;letter-spacing:0px;word-spacing:0px;text-anchor:middle;fill:#ffffff;fill-opacity:1;stroke:none;stroke-width:0.264583"
             x="79.290695"
             y="-672.87579"
             id="text8672"><tspan
               sodipodi:role="line"
               x="79.290695"
               y="-672.87579"
               style="font-size:3.88056px;text-align:center;text-anchor:middle;fill:#ffffff;stroke-width:0.264583"
               id="tspan8670">...</tspan></text><text
             xml:space="preserve"
             style="font-style:normal;font-variant:normal;font-weight:normal;font-stretch:normal;font-size:6.35px;line-height:0.5;font-family:'PT Sans';-inkscape-font-specification:'PT Sans';text-align:center;letter-spacing:0px;word-spacing:0px;text-anchor:middle;fill:#ffffff;fill-opacity:1;stroke:none;stroke-width:0.264583"
             x="91.428513"
             y="-672.87579"
             id="text8676"><tspan
               sodipodi:role="line"
               x="91.428513"
               y="-672.87579"
               style="font-size:3.88056px;text-align:center;text-anchor:middle;fill:#ffffff;stroke-width:0.264583"
               id="tspan8674">...</tspan></text><text
             xml:space="preserve"
             style="font-style:normal;font-variant:normal;font-weight:normal;font-stretch:normal;font-size:6.35px;line-height:0.5;font-family:'PT Sans';-inkscape-font-specification:'PT Sans';text-align:center;letter-spacing:0px;word-spacing:0px;text-anchor:middle;fill:#ffffff;fill-opacity:1;stroke:none;stroke-width:0.264583"
             x="103.6129"
             y="-672.87579"
             id="text8680"><tspan
               sodipodi:role="line"
               x="103.6129"
               y="-672.87579"
               style="font-size:3.88056px;text-align:center;text-anchor:middle;fill:#ffffff;stroke-width:0.264583"
               id="tspan8678">...</tspan></text></g></g><g
         id="path8004"
         inkscape:label="path3115"><path
           style="color:#000000;fill:#ffffff;fill-rule:evenodd;stroke-dasharray:0.5, 0.5;-inkscape-stroke:none"
           d="m 35.763672,-680.74023 -0.244141,0.21484 0.332031,0.375 0.242188,-0.21484 z m -0.617188,0.55664 -0.0625,0.0586 -0.300781,0.29102 0.345703,0.35937 0.296875,-0.28711 0.06055,-0.0547 z m -0.724609,0.71289 -0.285156,0.30078 -0.06055,0.0664 0.36914,0.3379 0.05664,-0.0625 0.283203,-0.29883 z m -0.681641,0.74414 -0.04297,0.0488 -0.142579,0.16601 -0.138671,0.16602 -0.0039,0.008 0.386719,0.31445 0.0039,-0.004 0.134766,-0.16211 0.138672,-0.16016 0.04102,-0.0488 z m -0.644531,0.7832 -0.08008,0.10352 -0.128906,0.16992 -0.0957,0.13086 0.402343,0.29687 0.0957,-0.1289 0.125,-0.16407 0.07813,-0.10156 z m -0.597656,0.82031 -0.09766,0.14453 -0.115235,0.17383 -0.06836,0.10352 0.421875,0.27148 0.06445,-0.10156 0.111328,-0.16992 0.0957,-0.14063 z m -0.548828,0.85547 -0.09961,0.16992 -0.103515,0.17774 -0.05078,0.0918 0.4375,0.24218 0.04883,-0.0879 0.09961,-0.17383 0.09766,-0.16601 z m -0.492188,0.88477 -0.002,0.004 -0.0918,0.18164 -0.08984,0.18165 -0.04102,0.0898 0.451172,0.21484 0.04102,-0.0879 0.08594,-0.17578 0.08984,-0.17578 z m -0.435547,0.92187 -0.07813,0.18164 -0.07422,0.1875 -0.04102,0.0996 0.466797,0.1836 0.03711,-0.0977 0.07422,-0.17969 0.07617,-0.17968 z m -0.371093,0.94727 -0.05859,0.17187 -0.0625,0.1875 -0.03906,0.12305 0.478516,0.14844 0.03711,-0.11719 0.05859,-0.18164 0.05859,-0.16797 z m -0.302735,0.9707 -0.04102,0.15235 -0.04883,0.1914 -0.03516,0.14844 0.486328,0.11719 0.0332,-0.14453 0.04883,-0.18555 0.03906,-0.14844 z m -0.234375,0.99024 -0.02344,0.12695 -0.03516,0.19531 -0.03125,0.17774 0.494141,0.082 0.0293,-0.17383 0.0332,-0.18945 0.02539,-0.12305 z m -0.160156,1.00586 -0.01367,0.0996 -0.02148,0.19727 -0.01758,0.19727 -0.002,0.0117 0.498047,0.041 0.002,-0.01 0.01758,-0.18945 0.02148,-0.1914 0.01172,-0.0957 z m -0.08984,1.01171 -0.0039,0.0762 -0.0078,0.19921 -0.0039,0.19922 v 0.0371 l 0.5,0.004 v -0.0312 l 0.0039,-0.19336 0.0078,-0.19141 0.0039,-0.0723 z m 0.484375,1.00977 -0.5,0.008 0.002,0.0566 0.0059,0.20117 0.0098,0.20118 0.002,0.0508 0.5,-0.0293 -0.0039,-0.0469 -0.0078,-0.19532 -0.0059,-0.19336 z m 0.05469,0.98047 -0.498047,0.043 0.0039,0.0488 0.01953,0.20117 0.02344,0.20312 0.0059,0.0547 0.496094,-0.0625 -0.0059,-0.0527 -0.02148,-0.19532 -0.01953,-0.19531 z m 0.121093,0.97656 -0.49414,0.0762 0.0078,0.0508 0.0332,0.20313 0.03711,0.20508 0.0078,0.043 0.492188,-0.0957 -0.0078,-0.041 -0.03711,-0.19727 -0.0332,-0.19531 z m 0.183594,0.96484 -0.488281,0.10938 0.01563,0.0723 0.04883,0.20312 0.05078,0.20508 0.0039,0.0156 0.484375,-0.1289 -0.0039,-0.0117 -0.04883,-0.19727 -0.04687,-0.19922 z m 0.246094,0.95313 -0.480469,0.13867 0.03125,0.11133 0.0625,0.20508 0.05469,0.16797 0.476562,-0.15039 -0.05273,-0.16602 -0.06055,-0.19922 z m 0.302734,0.9375 -0.470703,0.16797 0.06055,0.16797 0.07617,0.20508 0.03906,0.10156 0.466797,-0.17969 -0.03906,-0.0996 -0.07422,-0.19922 z m 0.355469,0.91992 -0.460937,0.19141 0.01758,0.0449 0.08789,0.20508 0.0918,0.20508 0.0059,0.0117 0.453125,-0.20703 -0.0039,-0.01 -0.08789,-0.19922 -0.08594,-0.19922 z m 0.40625,0.89844 -0.451172,0.21875 0.07031,0.14453 0.103515,0.20508 0.05273,0.10351 0.443359,-0.22851 -0.05078,-0.10156 -0.09961,-0.19922 z m 0.451172,0.87891 -0.439453,0.23828 0.03516,0.0644 0.113281,0.20508 0.09766,0.17187 0.435546,-0.24804 -0.09766,-0.16993 -0.111328,-0.19921 z m 0.494141,0.85742 -0.429688,0.25781 0.0039,0.006 0.125,0.20312 0.128907,0.20508 0.01172,0.0176 0.417969,-0.27344 -0.0098,-0.0137 -0.125,-0.19922 -0.121093,-0.19922 z m 0.529296,0.83008 -0.414062,0.2832 0.253906,0.37109 0.0332,0.0449 0.40625,-0.28906 -0.0293,-0.041 z m 0.56836,0.8125 -0.402344,0.29687 0.263672,0.35547 0.03711,0.0508 0.396485,-0.30664 -0.03516,-0.0469 z m 0.597656,0.7871 -0.388672,0.31446 0.28711,0.35742 0.0293,0.0352 0.384766,-0.32032 -0.02734,-0.0312 z m 0.628906,0.76563 -0.376953,0.32812 0.328125,0.37891 0.376953,-0.32812 z"
           id="path22420" /><g
           id="g22410"><g
             id="path22412"><path
               style="color:#000000;fill:#ffffff;fill-rule:evenodd;stroke-width:0.25pt;-inkscape-stroke:none"
               d="m 37.01912,-681.49666 -0.816051,2.36071 -1.636897,-1.88959 z"
               id="path22416" /><path
               style="color:#000000;fill:#ffffff;fill-rule:evenodd;-inkscape-stroke:none"
               d="m 37.271484,-681.71484 -0.283203,0.0547 -2.736328,0.52539 2.013672,2.32618 z m -0.503906,0.4375 -0.628906,1.81445 -1.257813,-1.45313 z"
               id="path22418" /></g></g></g><g
         id="path8595"
         inkscape:label="path3115"><path
           style="color:#000000;fill:#ffffff;fill-rule:evenodd;stroke-dasharray:0.5, 0.5;-inkscape-stroke:none"
           d="m 38.791016,-695.45312 -0.183594,0.004 -0.06836,0.002 0.01758,0.5 0.06445,-0.004 0.169922,-0.002 0.167968,0.004 0.07813,0.002 0.02148,-0.5 -0.08594,-0.002 z m -0.771485,0.043 -0.138672,0.0156 -0.18164,0.0273 -0.179688,0.0293 -0.01367,0.004 0.09766,0.49023 0.0078,-0.002 0.166016,-0.0293 0.167968,-0.0234 0.132813,-0.0156 z m 1.556641,0.002 -0.05859,0.49804 0.113281,0.0137 0.166016,0.0234 0.162109,0.0293 0.03125,0.006 0.09961,-0.49023 -0.03711,-0.008 -0.177734,-0.0312 -0.177734,-0.0254 z m -2.570313,0.18554 -0.01758,0.004 -0.173828,0.0508 -0.171875,0.0527 -0.134766,0.0469 0.164063,0.47266 0.128906,-0.043 0.158203,-0.0508 0.160157,-0.0449 0.0098,-0.004 z m 3.591797,0.0156 -0.142578,0.47851 0.140625,0.041 0.152344,0.0508 0.15039,0.0547 0.0098,0.004 0.185547,-0.46485 -0.01758,-0.008 -0.164063,-0.0586 -0.167968,-0.0547 z m -4.574219,0.33594 -0.04492,0.0215 -0.160157,0.0762 -0.15625,0.084 -0.103515,0.0586 0.248047,0.43359 0.09766,-0.0547 0.140625,-0.0742 0.146484,-0.0723 0.03711,-0.0176 z m 5.550782,0.0391 -0.230469,0.44336 0.126953,0.0664 0.134766,0.0762 0.130859,0.0801 0.01758,0.0117 0.277344,-0.41601 -0.02539,-0.0176 -0.146484,-0.0898 -0.150391,-0.084 z m -6.457032,0.48828 -0.04492,0.0332 -0.138672,0.10743 -0.132813,0.11132 -0.0918,0.082 0.335938,0.3711 0.08398,-0.0762 0.119141,-0.0996 0.123047,-0.0957 0.03906,-0.0273 z m 7.339844,0.0879 -0.324219,0.38086 0.08398,0.0703 0.107422,0.10157 0.105468,0.10351 0.04102,0.0469 0.371094,-0.33594 -0.05078,-0.0547 -0.119141,-0.12109 -0.123047,-0.11524 z m -8.113281,0.62891 -0.02734,0.0332 -0.109375,0.13477 -0.101562,0.14257 -0.07813,0.11914 0.417968,0.27344 0.07227,-0.10937 0.08789,-0.12305 0.0957,-0.11914 0.01953,-0.0234 z m 8.828125,0.15625 -0.412109,0.2832 0.0332,0.0488 0.07813,0.125 0.07227,0.13086 0.04883,0.0976 0.447266,-0.22265 -0.05273,-0.10742 -0.08398,-0.15039 -0.08984,-0.14649 z m -9.400391,0.74023 -0.01367,0.0273 -0.06836,0.16601 -0.0625,0.16992 -0.04492,0.13672 0.476563,0.15235 0.04102,-0.12696 0.05469,-0.14844 0.06055,-0.14453 0.0078,-0.0156 z m 9.865235,0.22266 -0.476563,0.15234 0.0098,0.0352 0.04102,0.15039 0.03516,0.1582 0.01758,0.10938 0.49414,-0.084 -0.02148,-0.12109 -0.03906,-0.17969 -0.04687,-0.17578 z m -10.173828,0.79883 -0.0098,0.0664 -0.02344,0.19336 -0.01563,0.19727 -0.002,0.0742 0.5,0.0156 0.002,-0.0625 0.01172,-0.17578 0.02148,-0.16992 0.0098,-0.0547 z m 10.345703,0.2539 -0.5,0.0156 0.002,0.10156 -0.002,0.17969 -0.0098,0.18554 0.496094,0.0488 0.002,-0.01 0.01172,-0.20703 0.002,-0.20118 z m -9.888672,0.77149 -0.5,0.0273 0.002,0.0195 0.01953,0.21289 0.0293,0.2168 0.01367,0.0762 0.492187,-0.0879 -0.01172,-0.0644 -0.02734,-0.19922 -0.01758,-0.19141 z m 9.316406,0.1875 -0.02148,0.11132 -0.04492,0.20704 -0.03906,0.15039 0.484375,0.125 0.04102,-0.16016 0.04883,-0.22461 0.02344,-0.12109 z m -9.158203,0.74804 -0.484375,0.125 0.02344,0.0937 0.06836,0.23243 0.05664,0.16796 0.47461,-0.15625 -0.05273,-0.16015 -0.06445,-0.2168 z m 8.912109,0.18164 -0.01172,0.0371 -0.08398,0.22657 -0.07813,0.18945 0.462891,0.1875 0.08008,-0.19727 0.08984,-0.24023 0.01563,-0.0449 z m -8.603515,0.73438 -0.464844,0.1875 0.0293,0.0723 0.111328,0.25 0.07031,0.14844 0.451172,-0.21484 -0.06836,-0.14258 -0.103516,-0.23633 z m 8.230468,0.16211 -0.03711,0.0762 -0.125,0.24805 -0.05859,0.10742 0.439453,0.23828 0.0625,-0.11328 0.13086,-0.25977 0.03906,-0.084 z m -7.8125,0.71289 -0.439453,0.24023 0.08984,0.16602 0.154297,0.26562 0.0078,0.0137 0.427735,-0.26172 -0.0059,-0.008 -0.146484,-0.2539 z m 7.351563,0.14258 -0.146484,0.23828 -0.115235,0.18164 0.419922,0.26953 0.121094,-0.18555 0.146484,-0.24218 z m -6.849609,0.70117 -0.419922,0.27148 0.06445,0.0996 0.189453,0.27735 0.03125,0.0469 0.408203,-0.29101 -0.0293,-0.041 -0.183594,-0.26758 z m 6.314453,0.125 -0.160157,0.22851 -0.126953,0.17383 0.402344,0.29688 0.130859,-0.17774 0.164063,-0.23242 z m -5.75,0.67969 -0.402344,0.29882 0.08398,0.11329 0.22461,0.28711 0.394531,-0.30665 -0.220703,-0.2832 z m 5.164062,0.11718 -0.0039,0.002 0.398437,0.30468 0.002,-0.002 z"
           id="path22406" /><g
           id="g22396"><g
             id="path22398"><path
               style="color:#000000;fill:#ffffff;fill-rule:evenodd;stroke-width:0.25pt;-inkscape-stroke:none"
               d="m 40.341869,-684.90032 0.34746,-2.4735 1.969339,1.54004 z"
               id="path22402" /><path
               style="color:#000000;fill:#ffffff;fill-rule:evenodd;-inkscape-stroke:none"
               d="m 40.564453,-687.68359 -0.427734,3.04492 0.267578,-0.10742 2.583984,-1.04102 z m 0.248047,0.61914 1.515625,1.18359 -1.78125,0.71875 z"
               id="path22404" /></g></g></g><g
         id="path8599"
         inkscape:label="path3115"><path
           style="color:#000000;fill:#ffffff;fill-rule:evenodd;stroke-dasharray:0.5, 0.5;-inkscape-stroke:none"
           d="m 41.568359,-681.71289 -0.378906,0.32812 0.328125,0.37696 0.376953,-0.32813 z m 0.650391,0.76562 -0.382813,0.32032 0.02539,0.0312 0.285156,0.35351 0.388672,-0.3125 -0.287109,-0.35742 z m 0.626953,0.79102 -0.396484,0.30469 0.03711,0.0469 0.259766,0.35157 0.40039,-0.29883 -0.261718,-0.35352 z m 0.595703,0.81445 -0.408203,0.29102 0.0293,0.041 0.25,0.36719 0.414062,-0.28125 -0.253906,-0.37304 z m 0.560547,0.83985 -0.417969,0.27343 0.0098,0.0156 0.125,0.19922 0.123047,0.19922 0.002,0.002 0.427734,-0.25586 -0.002,-0.006 -0.126953,-0.20508 -0.128906,-0.20312 z m 0.527344,0.86718 -0.433594,0.24805 0.0957,0.16992 0.111328,0.20118 0.0332,0.0605 0.439454,-0.23828 -0.0332,-0.0644 -0.115234,-0.20313 z m 0.482422,0.88868 -0.44336,0.22851 0.05078,0.0996 0.09961,0.20117 0.07031,0.14063 0.449219,-0.2168 -0.07031,-0.14453 -0.101563,-0.20508 z m 0.441406,0.91015 -0.455078,0.20899 0.0039,0.008 0.08789,0.20117 0.08594,0.19922 0.01758,0.041 0.460938,-0.19141 -0.01758,-0.0449 -0.08789,-0.20508 -0.0918,-0.20508 z m 0.390625,0.93555 -0.464844,0.18164 0.03711,0.0977 0.07422,0.19922 0.06055,0.16601 0.470703,-0.16992 -0.06055,-0.16797 -0.07813,-0.20508 z m 0.339844,0.95703 -0.476563,0.15234 0.05469,0.16602 0.06055,0.19922 0.03125,0.10547 0.478515,-0.13867 -0.03125,-0.10938 -0.0625,-0.20508 z m 0.283203,0.97266 -0.484375,0.12695 0.0039,0.0117 0.04883,0.19922 0.04687,0.19726 0.01563,0.0684 0.488281,-0.10742 -0.01563,-0.0723 -0.04883,-0.20508 -0.05078,-0.20313 z m 0.222656,0.99218 -0.490234,0.0957 0.0078,0.0391 0.03516,0.19727 0.0332,0.19726 0.0078,0.0488 0.494141,-0.0762 -0.0078,-0.0527 -0.03516,-0.20312 -0.03711,-0.20313 z m 0.158203,1.00391 -0.496094,0.0625 0.0059,0.0508 0.02344,0.19531 0.01953,0.19532 0.0039,0.0449 0.498047,-0.043 -0.0059,-0.0469 -0.01953,-0.20313 -0.02344,-0.20117 z m 0.08984,1.01172 -0.498047,0.0293 0.002,0.0488 0.0098,0.19336 0.0059,0.19336 v 0.0547 l 0.5,-0.01 -0.002,-0.0566 -0.0059,-0.20117 -0.0078,-0.20117 z m -0.478516,1.01172 -0.002,0.0332 -0.0039,0.19141 -0.0078,0.19336 -0.0039,0.0703 0.5,0.0273 0.0039,-0.0762 0.0078,-0.19922 0.0039,-0.19922 0.002,-0.0351 z m -0.05078,0.98047 -0.002,0.01 -0.01758,0.19141 -0.01953,0.18945 -0.01367,0.0957 0.496093,0.0625 0.01367,-0.0996 0.02148,-0.19727 0.01758,-0.19727 0.002,-0.0137 z m -0.121094,0.97265 -0.0293,0.17383 -0.0332,0.1875 -0.02344,0.12305 0.490234,0.0957 0.02539,-0.12695 0.03516,-0.19336 0.0293,-0.17774 z m -0.189453,0.96289 -0.03516,0.14454 -0.04687,0.18554 -0.04102,0.14844 0.482422,0.12891 0.04102,-0.15039 0.04883,-0.19336 0.03711,-0.14649 z m -0.259765,0.94727 -0.03711,0.11719 -0.06055,0.18359 -0.05859,0.16797 0.472656,0.16211 0.05859,-0.16992 0.0625,-0.18946 0.03906,-0.12109 z m -0.326172,0.92773 -0.03906,0.0977 -0.07227,0.17969 -0.07617,0.17773 0.458984,0.19531 0.07813,-0.18164 0.07617,-0.18554 0.03906,-0.10157 z m -0.390625,0.90235 -0.04102,0.0859 -0.08594,0.17773 -0.08789,0.17578 0.441406,0.23047 0.002,-0.002 0.0918,-0.18164 0.08984,-0.1836 0.04297,-0.0898 z m -0.449219,0.87304 -0.04883,0.0898 -0.09961,0.17187 -0.09766,0.16602 0.431641,0.25586 0.09961,-0.16992 0.101563,-0.17969 0.05078,-0.0898 z m -0.503906,0.84571 -0.06641,0.10156 -0.111328,0.16797 -0.0957,0.14062 0.414063,0.28125 0.09766,-0.14257 0.115234,-0.17383 0.06641,-0.10547 z m -0.556641,0.81054 -0.0957,0.12891 -0.123047,0.16602 -0.07813,0.0996 0.394531,0.30664 0.08008,-0.10352 0.128907,-0.16992 0.0957,-0.13086 z m -0.605469,0.78125 -0.0039,0.004 -0.134766,0.16211 -0.136718,0.16211 -0.04102,0.0469 0.375,0.32813 0.04492,-0.0488 0.140625,-0.16601 0.138672,-0.16602 0.0059,-0.006 z m -0.646484,0.74415 -0.05664,0.0625 -0.283203,0.29882 0.363281,0.34375 0.285157,-0.30273 0.06055,-0.0644 z m -0.683594,0.70703 -0.296875,0.28711 -0.06055,0.0566 0.339844,0.36718 0.06445,-0.0605 0.300781,-0.29102 z m -0.722656,0.67578 -0.242188,0.21484 0.332032,0.375 0.242187,-0.21484 z"
           id="path22434" /><g
           id="g22424"><g
             id="path22426"><path
               style="color:#000000;fill:#ffffff;fill-rule:evenodd;stroke-width:0.25pt;-inkscape-stroke:none"
               d="m 39.786115,-656.47315 0.816051,-2.36071 1.636897,1.88959 z"
               id="path22430" /><path
               style="color:#000000;fill:#ffffff;fill-rule:evenodd;-inkscape-stroke:none"
               d="m 40.539062,-659.16211 -1.003906,2.90625 0.283203,-0.0527 2.736328,-0.52735 z m 0.126954,0.65625 1.259765,1.45313 -1.888672,0.36132 z"
               id="path22432" /></g></g></g></g></g></svg>
